Roundel Latin-Light.ufo
<glyph name="exclam" format="1">
  <advance width="241"/>
  <unicode hex="0021"/>
  <outline>
    <contour>
      <point x="100" y="688" type="line"/>
      <point x="100" y="563"/>
      <point x="110" y="325"/>
      <point x="110" y="205" type="curve"/>
      <point x="130" y="205" type="line"/>
      <point x="130" y="326"/>
      <point x="140" y="563"/>
      <point x="140" y="688" type="curve"/>
    </contour>
    <contour>
      <point x="120" y="-5" type="curve" smooth="yes"/>
      <point x="138" y="-5"/>
      <point x="153" y="10"/>
      <point x="153" y="27" type="curve" smooth="yes"/>
      <point x="153" y="45"/>
      <point x="138" y="60"/>
      <point x="120" y="60" type="curve" smooth="yes"/>
      <point x="103" y="60"/>
      <point x="88" y="45"/>
      <point x="88" y="27" type="curve" smooth="yes"/>
      <point x="88" y="10"/>
      <point x="103" y="-5"/>
    </contour>
  </outline>
</glyph>
<glyph name="quotedbl" format="1">
  <advance width="237"/>
  <unicode hex="0022"/>
  <outline>
    <contour>
      <point x="78" y="688" type="line"/>
      <point x="49" y="688" type="line"/>
      <point x="54" y="504" type="line"/>
      <point x="73" y="504" type="line"/>
    </contour>
    <contour>
      <point x="188" y="688" type="line"/>
      <point x="159" y="688" type="line"/>
      <point x="164" y="504" type="line"/>
      <point x="183" y="504" type="line"/>
    </contour>
  </outline>
</glyph>
<glyph name="dollar" format="1">
  <advance width="560"/>
  <unicode hex="0024"/>
  <outline>
    <contour>
      <point x="471" y="157" type="curve"/>
      <point x="471" y="247"/>
      <point x="416" y="278"/>
      <point x="305" y="316" type="curve" smooth="yes"/>
      <point x="209" y="349" type="line" smooth="yes"/>
      <point x="126" y="378"/>
      <point x="40" y="419"/>
      <point x="40" y="527" type="curve"/>
      <point x="40" y="640"/>
      <point x="138" y="698"/>
      <point x="256" y="698" type="curve"/>
      <point x="353" y="698"/>
      <point x="433" y="665"/>
      <point x="473" y="633" type="curve"/>
      <point x="473" y="597" type="line"/>
      <point x="430" y="630"/>
      <point x="353" y="670"/>
      <point x="256" y="670" type="curve"/>
      <point x="133" y="670"/>
      <point x="70" y="608"/>
      <point x="70" y="529" type="curve"/>
      <point x="70" y="434"/>
      <point x="144" y="404"/>
      <point x="236" y="372" type="curve" smooth="yes"/>
      <point x="311" y="346" type="line" smooth="yes"/>
      <point x="436" y="303"/>
      <point x="501" y="267"/>
      <point x="501" y="157" type="curve"/>
      <point x="501" y="47"/>
      <point x="413" y="-10"/>
      <point x="292" y="-10" type="curve"/>
      <point x="193" y="-10"/>
      <point x="100" y="24"/>
      <point x="38" y="65" type="curve"/>
      <point x="38" y="98" type="line"/>
      <point x="98" y="58"/>
      <point x="188" y="18"/>
      <point x="289" y="18" type="curve"/>
      <point x="413" y="18"/>
      <point x="471" y="75"/>
    </contour>
    <contour>
      <point x="265" y="685" type="line"/>
      <point x="265" y="778" type="line"/>
      <point x="293" y="778" type="line"/>
      <point x="293" y="685" type="line"/>
    </contour>
    <contour>
      <point x="293" y="-90" type="line"/>
      <point x="265" y="-90" type="line"/>
      <point x="265" y="4" type="line"/>
      <point x="293" y="4" type="line"/>
    </contour>
  </outline>
</glyph>
<glyph name="parenleft" format="1">
  <advance width="247"/>
  <unicode hex="0028"/>
  <outline>
    <contour>
      <point x="228" y="719" type="line"/>
      <point x="172" y="649"/>
      <point x="79" y="525"/>
      <point x="79" y="344" type="curve"/>
      <point x="79" y="163"/>
      <point x="172" y="39"/>
      <point x="228" y="-31" type="curve"/>
      <point x="203" y="-31" type="line"/>
      <point x="138" y="42"/>
      <point x="49" y="172"/>
      <point x="49" y="344" type="curve"/>
      <point x="49" y="516"/>
      <point x="138" y="646"/>
      <point x="203" y="719" type="curve"/>
    </contour>
  </outline>
</glyph>
<glyph name="parenright" format="1">
  <advance width="247"/>
  <unicode hex="0029"/>
  <outline>
    <contour>
      <point x="19" y="719" type="curve"/>
      <point x="44" y="719" type="line"/>
      <point x="109" y="646"/>
      <point x="198" y="516"/>
      <point x="198" y="344" type="curve"/>
      <point x="198" y="172"/>
      <point x="109" y="42"/>
      <point x="44" y="-31" type="curve"/>
      <point x="19" y="-31" type="line"/>
      <point x="75" y="39"/>
      <point x="168" y="163"/>
      <point x="168" y="344" type="curve"/>
      <point x="168" y="525"/>
      <point x="75" y="649"/>
    </contour>
  </outline>
</glyph>
<glyph name="plus" format="1">
  <advance width="499"/>
  <unicode hex="002B"/>
  <outline>
    <contour>
      <point x="265" y="537" type="line"/>
      <point x="235" y="537" type="line"/>
      <point x="235" y="151" type="line"/>
      <point x="265" y="151" type="line"/>
    </contour>
    <contour>
      <point x="69" y="330" type="line"/>
      <point x="431" y="330" type="line"/>
      <point x="431" y="358" type="line"/>
      <point x="69" y="358" type="line"/>
    </contour>
  </outline>
</glyph>
<glyph name="comma" format="1">
  <advance width="108"/>
  <unicode hex="002C"/>
  <outline>
    <contour>
      <point x="79" y="55" type="line"/>
      <point x="40" y="55" type="line"/>
      <point x="-14" y="-124" type="line"/>
      <point x="8" y="-124" type="line"/>
    </contour>
  </outline>
</glyph>
<glyph name="period" format="1">
  <advance width="113"/>
  <unicode hex="002E"/>
  <outline>
    <contour>
      <point x="24" y="10"/>
      <point x="39" y="-5"/>
      <point x="56" y="-5" type="curve" smooth="yes"/>
      <point x="74" y="-5"/>
      <point x="89" y="10"/>
      <point x="89" y="27" type="curve" smooth="yes"/>
      <point x="89" y="45"/>
      <point x="74" y="60"/>
      <point x="56" y="60" type="curve" smooth="yes"/>
      <point x="39" y="60"/>
      <point x="24" y="45"/>
      <point x="24" y="27" type="curve" smooth="yes"/>
    </contour>
  </outline>
</glyph>
<glyph name="slash" format="1">
  <advance width="406"/>
  <unicode hex="002F"/>
  <outline>
    <contour>
      <point x="47" y="-40" type="line"/>
      <point x="387" y="790" type="line"/>
      <point x="359" y="790" type="line"/>
      <point x="19" y="-40" type="line"/>
    </contour>
  </outline>
</glyph>
<glyph name="zero" format="1">
  <advance width="690"/>
  <unicode hex="0030"/>
  <outline>
    <contour>
      <point x="345" y="-10" type="curve" smooth="yes"/>
      <point x="203" y="-10"/>
      <point x="79" y="99"/>
      <point x="79" y="344" type="curve" smooth="yes"/>
      <point x="79" y="588"/>
      <point x="203" y="698"/>
      <point x="345" y="698" type="curve" smooth="yes"/>
      <point x="487" y="698"/>
      <point x="611" y="588"/>
      <point x="611" y="344" type="curve" smooth="yes"/>
      <point x="611" y="99"/>
      <point x="487" y="-10"/>
    </contour>
    <contour>
      <point x="345" y="18" type="curve" smooth="yes"/>
      <point x="474" y="18"/>
      <point x="581" y="124"/>
      <point x="581" y="344" type="curve" smooth="yes"/>
      <point x="581" y="563"/>
      <point x="474" y="669"/>
      <point x="345" y="669" type="curve" smooth="yes"/>
      <point x="216" y="669"/>
      <point x="109" y="563"/>
      <point x="109" y="344" type="curve" smooth="yes"/>
      <point x="109" y="124"/>
      <point x="216" y="18"/>
    </contour>
  </outline>
</glyph>
<glyph name="two" format="1">
  <advance width="539"/>
  <unicode hex="0032"/>
  <outline>
    <contour>
      <point x="490" y="0" type="line"/>
      <point x="490" y="28" type="line"/>
      <point x="80" y="28" type="line"/>
      <point x="335" y="271" type="line" smooth="yes"/>
      <point x="419" y="351"/>
      <point x="486" y="420"/>
      <point x="486" y="517" type="curve"/>
      <point x="486" y="636"/>
      <point x="403" y="698"/>
      <point x="292" y="698" type="curve"/>
      <point x="172" y="698"/>
      <point x="89" y="628"/>
      <point x="59" y="597" type="curve"/>
      <point x="59" y="561" type="line"/>
      <point x="95" y="599"/>
      <point x="176" y="670"/>
      <point x="292" y="670" type="curve"/>
      <point x="399" y="670"/>
      <point x="456" y="604"/>
      <point x="456" y="517" type="curve"/>
      <point x="456" y="428"/>
      <point x="400" y="373"/>
      <point x="314" y="290" type="curve" smooth="yes"/>
      <point x="39" y="23" type="line"/>
      <point x="39" y="0" type="line"/>
    </contour>
  </outline>
</glyph>
<glyph name="three" format="1">
  <advance width="520"/>
  <unicode hex="0033"/>
  <outline>
    <contour>
      <point x="29" y="92" type="line"/>
      <point x="67" y="58"/>
      <point x="135" y="18"/>
      <point x="230" y="18" type="curve"/>
      <point x="368" y="18"/>
      <point x="441" y="98"/>
      <point x="441" y="195" type="curve" smooth="yes"/>
      <point x="441" y="293"/>
      <point x="373" y="372"/>
      <point x="245" y="372" type="curve"/>
      <point x="106" y="372" type="line"/>
      <point x="106" y="392" type="line"/>
      <point x="409" y="660" type="line"/>
      <point x="52" y="660" type="line"/>
      <point x="52" y="688" type="line"/>
      <point x="449" y="688" type="line"/>
      <point x="449" y="661" type="line"/>
      <point x="152" y="400" type="line"/>
      <point x="245" y="400" type="line"/>
      <point x="396" y="400"/>
      <point x="471" y="307"/>
      <point x="471" y="195" type="curve" smooth="yes"/>
      <point x="471" y="84"/>
      <point x="387" y="-10"/>
      <point x="230" y="-10" type="curve"/>
      <point x="140" y="-10"/>
      <point x="70" y="25"/>
      <point x="29" y="58" type="curve"/>
    </contour>
  </outline>
</glyph>
<glyph name="six" format="1">
  <advance width="621"/>
  <unicode hex="0036"/>
  <outline>
    <contour>
      <point x="99" y="327" type="line"/>
      <point x="133" y="507"/>
      <point x="312" y="645"/>
      <point x="393" y="688" type="curve"/>
      <point x="346" y="688" type="line"/>
      <point x="247" y="635"/>
      <point x="64" y="466"/>
      <point x="64" y="266" type="curve"/>
      <point x="64" y="74"/>
      <point x="180" y="-10"/>
      <point x="318" y="-10" type="curve"/>
      <point x="457" y="-10"/>
      <point x="562" y="77"/>
      <point x="562" y="226" type="curve"/>
      <point x="562" y="375"/>
      <point x="451" y="452"/>
      <point x="330" y="452" type="curve"/>
      <point x="207" y="452"/>
      <point x="121" y="384"/>
      <point x="84" y="315" type="curve"/>
      <point x="89" y="296" type="line"/>
      <point x="140" y="365"/>
      <point x="215" y="424"/>
      <point x="330" y="424" type="curve"/>
      <point x="437" y="424"/>
      <point x="532" y="356"/>
      <point x="532" y="226" type="curve"/>
      <point x="532" y="95"/>
      <point x="443" y="18"/>
      <point x="318" y="18" type="curve"/>
      <point x="195" y="18"/>
      <point x="94" y="92"/>
      <point x="94" y="266" type="curve"/>
      <point x="94" y="281"/>
      <point x="95" y="296"/>
      <point x="97" y="311" type="curve"/>
    </contour>
  </outline>
</glyph>
<glyph name="seven" format="1">
  <advance width="504"/>
  <unicode hex="0037"/>
  <outline>
    <contour>
      <point x="121" y="0" type="line"/>
      <point x="485" y="662" type="line"/>
      <point x="485" y="688" type="line"/>
      <point x="19" y="688" type="line"/>
      <point x="19" y="660" type="line"/>
      <point x="451" y="660" type="line"/>
      <point x="87" y="0" type="line"/>
    </contour>
  </outline>
</glyph>
<glyph name="eight" format="1">
  <advance width="600"/>
  <unicode hex="0038"/>
  <outline>
    <contour>
      <point x="300" y="-10" type="curve"/>
      <point x="461" y="-10"/>
      <point x="548" y="79"/>
      <point x="548" y="186" type="curve" smooth="yes"/>
      <point x="548" y="271"/>
      <point x="496" y="343"/>
      <point x="398" y="372" type="curve"/>
      <point x="474" y="398"/>
      <point x="518" y="455"/>
      <point x="518" y="526" type="curve" smooth="yes"/>
      <point x="518" y="625"/>
      <point x="436" y="698"/>
      <point x="300" y="698" type="curve" smooth="yes"/>
      <point x="166" y="698"/>
      <point x="84" y="626"/>
      <point x="84" y="528" type="curve" smooth="yes"/>
      <point x="84" y="457"/>
      <point x="128" y="399"/>
      <point x="204" y="372" type="curve"/>
      <point x="105" y="344"/>
      <point x="52" y="271"/>
      <point x="52" y="186" type="curve" smooth="yes"/>
      <point x="52" y="79"/>
      <point x="139" y="-10"/>
    </contour>
    <contour>
      <point x="114" y="528" type="curve" smooth="yes"/>
      <point x="114" y="611"/>
      <point x="185" y="670"/>
      <point x="300" y="670" type="curve" smooth="yes"/>
      <point x="416" y="670"/>
      <point x="487" y="611"/>
      <point x="487" y="528" type="curve" smooth="yes"/>
      <point x="487" y="445"/>
      <point x="416" y="385"/>
      <point x="300" y="385" type="curve" smooth="yes"/>
      <point x="185" y="385"/>
      <point x="114" y="445"/>
    </contour>
    <contour>
      <point x="82" y="186" type="curve" smooth="yes"/>
      <point x="82" y="281"/>
      <point x="158" y="357"/>
      <point x="300" y="357" type="curve"/>
      <point x="442" y="357"/>
      <point x="518" y="281"/>
      <point x="518" y="186" type="curve" smooth="yes"/>
      <point x="518" y="94"/>
      <point x="442" y="18"/>
      <point x="300" y="18" type="curve"/>
      <point x="158" y="18"/>
      <point x="82" y="94"/>
    </contour>
  </outline>
</glyph>
<glyph name="nine" format="1">
  <advance width="616"/>
  <unicode hex="0039"/>
  <outline>
    <contour>
      <point x="516" y="357" type="line"/>
      <point x="480" y="178"/>
      <point x="305" y="42"/>
      <point x="223" y="0" type="curve"/>
      <point x="270" y="0" type="line"/>
      <point x="369" y="53"/>
      <point x="552" y="222"/>
      <point x="552" y="422" type="curve"/>
      <point x="552" y="614"/>
      <point x="436" y="698"/>
      <point x="298" y="698" type="curve"/>
      <point x="159" y="698"/>
      <point x="54" y="611"/>
      <point x="54" y="462" type="curve"/>
      <point x="54" y="313"/>
      <point x="165" y="236"/>
      <point x="286" y="236" type="curve"/>
      <point x="409" y="236"/>
      <point x="495" y="304"/>
      <point x="532" y="373" type="curve"/>
      <point x="527" y="392" type="line"/>
      <point x="476" y="323"/>
      <point x="401" y="264"/>
      <point x="286" y="264" type="curve"/>
      <point x="179" y="264"/>
      <point x="84" y="332"/>
      <point x="84" y="462" type="curve"/>
      <point x="84" y="593"/>
      <point x="173" y="670"/>
      <point x="298" y="670" type="curve"/>
      <point x="421" y="670"/>
      <point x="522" y="596"/>
      <point x="522" y="422" type="curve"/>
      <point x="522" y="405"/>
      <point x="521" y="388"/>
      <point x="518" y="372" type="curve"/>
    </contour>
  </outline>
</glyph>
<glyph name="colon" format="1">
  <advance width="113"/>
  <unicode hex="003A"/>
  <outline>
    <contour>
      <point x="56" y="-5" type="curve" smooth="yes"/>
      <point x="74" y="-5"/>
      <point x="89" y="10"/>
      <point x="89" y="27" type="curve" smooth="yes"/>
      <point x="89" y="45"/>
      <point x="74" y="60"/>
      <point x="56" y="60" type="curve" smooth="yes"/>
      <point x="39" y="60"/>
      <point x="24" y="45"/>
      <point x="24" y="27" type="curve" smooth="yes"/>
      <point x="24" y="10"/>
      <point x="39" y="-5"/>
    </contour>
    <contour>
      <point x="56" y="385" type="curve" smooth="yes"/>
      <point x="74" y="385"/>
      <point x="89" y="400"/>
      <point x="89" y="417" type="curve" smooth="yes"/>
      <point x="89" y="435"/>
      <point x="74" y="450"/>
      <point x="56" y="450" type="curve" smooth="yes"/>
      <point x="39" y="450"/>
      <point x="24" y="435"/>
      <point x="24" y="417" type="curve" smooth="yes"/>
      <point x="24" y="400"/>
      <point x="39" y="385"/>
    </contour>
  </outline>
</glyph>
<glyph name="less" format="1">
  <advance width="499"/>
  <unicode hex="003C"/>
  <outline>
    <contour>
      <point x="431" y="197" type="line"/>
      <point x="81" y="356" type="line"/>
      <point x="79" y="334" type="line"/>
      <point x="431" y="492" type="line"/>
      <point x="431" y="523" type="line"/>
      <point x="69" y="356" type="line"/>
      <point x="69" y="334" type="line"/>
      <point x="431" y="166" type="line"/>
    </contour>
  </outline>
</glyph>
<glyph name="equal" format="1">
  <advance width="499"/>
  <unicode hex="003D"/>
  <outline>
    <contour>
      <point x="69" y="401" type="line"/>
      <point x="431" y="401" type="line"/>
      <point x="431" y="429" type="line"/>
      <point x="69" y="429" type="line"/>
    </contour>
    <contour>
      <point x="69" y="259" type="line"/>
      <point x="431" y="259" type="line"/>
      <point x="431" y="287" type="line"/>
      <point x="69" y="287" type="line"/>
    </contour>
  </outline>
</glyph>
<glyph name="greater" format="1">
  <advance width="499"/>
  <unicode hex="003E"/>
  <outline>
    <contour>
      <point x="69" y="169" type="line"/>
      <point x="69" y="136" type="line"/>
      <point x="431" y="334" type="line"/>
      <point x="431" y="356" type="line"/>
      <point x="69" y="553" type="line"/>
      <point x="69" y="520" type="line"/>
      <point x="421" y="332" type="line"/>
      <point x="419" y="358" type="line"/>
    </contour>
  </outline>
</glyph>
<glyph name="at" format="1">
  <advance width="734"/>
  <unicode hex="0040"/>
  <outline>
    <contour>
      <point x="648" y="237" type="line"/>
      <point x="596" y="200"/>
      <point x="517" y="148"/>
      <point x="425" y="148" type="curve"/>
      <point x="355" y="148"/>
      <point x="295" y="176"/>
      <point x="295" y="253" type="curve"/>
      <point x="295" y="330"/>
      <point x="361" y="378"/>
      <point x="506" y="378" type="curve"/>
      <point x="562" y="378"/>
      <point x="620" y="367"/>
      <point x="645" y="357" type="curve"/>
      <point x="644" y="385" type="line"/>
      <point x="617" y="394"/>
      <point x="562" y="405"/>
      <point x="494" y="405" type="curve"/>
      <point x="343" y="405"/>
      <point x="265" y="337"/>
      <point x="265" y="253" type="curve"/>
      <point x="265" y="179"/>
      <point x="318" y="121"/>
      <point x="425" y="121" type="curve"/>
      <point x="525" y="121"/>
      <point x="606" y="179"/>
      <point x="650" y="213" type="curve"/>
    </contour>
    <contour>
      <point x="652" y="49" type="line"/>
      <point x="595" y="-8"/>
      <point x="511" y="-37"/>
      <point x="413" y="-37" type="curve"/>
      <point x="221" y="-37"/>
      <point x="94" y="94"/>
      <point x="94" y="301" type="curve" smooth="yes"/>
      <point x="94" y="489"/>
      <point x="216" y="617"/>
      <point x="399" y="617" type="curve" smooth="yes"/>
      <point x="550" y="617"/>
      <point x="640" y="523"/>
      <point x="640" y="386" type="curve"/>
      <point x="640" y="215" type="line"/>
      <point x="645" y="212" type="line"/>
      <point x="645" y="131" type="line"/>
      <point x="670" y="131" type="line"/>
      <point x="670" y="386" type="line"/>
      <point x="670" y="537"/>
      <point x="569" y="643"/>
      <point x="401" y="643" type="curve" smooth="yes"/>
      <point x="200" y="643"/>
      <point x="66" y="504"/>
      <point x="66" y="299" type="curve" smooth="yes"/>
      <point x="66" y="78"/>
      <point x="204" y="-65"/>
      <point x="413" y="-65" type="curve"/>
      <point x="508" y="-65"/>
      <point x="591" y="-38"/>
      <point x="652" y="13" type="curve"/>
    </contour>
  </outline>
</glyph>
<glyph name="B" format="1">
  <advance width="653"/>
  <unicode hex="0042"/>
  <outline>
    <contour>
      <point x="104" y="0" type="line"/>
      <point x="364" y="0" type="line" smooth="yes"/>
      <point x="499" y="0"/>
      <point x="599" y="54"/>
      <point x="599" y="188" type="curve" smooth="yes"/>
      <point x="599" y="288"/>
      <point x="538" y="350"/>
      <point x="425" y="366" type="curve"/>
      <point x="504" y="386"/>
      <point x="554" y="443"/>
      <point x="554" y="521" type="curve" smooth="yes"/>
      <point x="554" y="645"/>
      <point x="467" y="688"/>
      <point x="349" y="688" type="curve" smooth="yes"/>
      <point x="104" y="688" type="line"/>
    </contour>
    <contour>
      <point x="349" y="660" type="line" smooth="yes"/>
      <point x="448" y="660"/>
      <point x="524" y="628"/>
      <point x="524" y="521" type="curve" smooth="yes"/>
      <point x="524" y="423"/>
      <point x="443" y="376"/>
      <point x="339" y="376" type="curve" smooth="yes"/>
      <point x="134" y="376" type="line"/>
      <point x="134" y="660" type="line"/>
    </contour>
    <contour>
      <point x="354" y="348" type="line" smooth="yes"/>
      <point x="476" y="348"/>
      <point x="569" y="301"/>
      <point x="569" y="188" type="curve" smooth="yes"/>
      <point x="569" y="70"/>
      <point x="479" y="28"/>
      <point x="364" y="28" type="curve" smooth="yes"/>
      <point x="134" y="28" type="line"/>
      <point x="134" y="348" type="line"/>
    </contour>
  </outline>
</glyph>
<glyph name="C" format="1">
  <advance width="684"/>
  <unicode hex="0043"/>
  <outline>
    <contour>
      <point x="410" y="-10" type="curve"/>
      <point x="510" y="-10"/>
      <point x="590" y="19"/>
      <point x="655" y="61" type="curve"/>
      <point x="655" y="97" type="line"/>
      <point x="593" y="54"/>
      <point x="512" y="18"/>
      <point x="410" y="18" type="curve"/>
      <point x="231" y="18"/>
      <point x="94" y="153"/>
      <point x="94" y="343" type="curve" smooth="yes"/>
      <point x="94" y="534"/>
      <point x="231" y="670"/>
      <point x="410" y="670" type="curve"/>
      <point x="512" y="670"/>
      <point x="593" y="634"/>
      <point x="655" y="591" type="curve"/>
      <point x="655" y="627" type="line"/>
      <point x="590" y="669"/>
      <point x="510" y="698"/>
      <point x="410" y="698" type="curve"/>
      <point x="215" y="698"/>
      <point x="64" y="551"/>
      <point x="64" y="343" type="curve" smooth="yes"/>
      <point x="64" y="136"/>
      <point x="215" y="-10"/>
    </contour>
    <contour>
      <point x="419" y="344" type="move" name="center"/>
    </contour>
  </outline>
</glyph>
<glyph name="D" format="1">
  <advance width="752"/>
  <unicode hex="0044"/>
  <outline>
    <contour>
      <point x="104" y="688" type="line"/>
      <point x="104" y="0" type="line"/>
      <point x="134" y="0" type="line"/>
      <point x="134" y="688" type="line"/>
    </contour>
    <contour>
      <point x="122" y="28" type="line"/>
      <point x="122" y="0" type="line"/>
      <point x="312" y="0" type="line" smooth="yes"/>
      <point x="539" y="0"/>
      <point x="688" y="136"/>
      <point x="688" y="343" type="curve" smooth="yes"/>
      <point x="688" y="552"/>
      <point x="539" y="688"/>
      <point x="312" y="688" type="curve" smooth="yes"/>
      <point x="122" y="688" type="line"/>
      <point x="122" y="660" type="line"/>
      <point x="312" y="660" type="line" smooth="yes"/>
      <point x="521" y="660"/>
      <point x="658" y="534"/>
      <point x="658" y="343" type="curve" smooth="yes"/>
      <point x="658" y="154"/>
      <point x="521" y="28"/>
      <point x="312" y="28" type="curve" smooth="yes"/>
    </contour>
    <contour>
      <point x="356" y="344" type="move" name="center"/>
    </contour>
  </outline>
</glyph>
<glyph name="G" format="1">
  <advance width="739"/>
  <unicode hex="0047"/>
  <outline>
    <contour>
      <point x="420" y="18" type="curve"/>
      <point x="522" y="18"/>
      <point x="603" y="54"/>
      <point x="665" y="97" type="curve"/>
      <point x="665" y="61" type="line"/>
      <point x="600" y="19"/>
      <point x="520" y="-10"/>
      <point x="420" y="-10" type="curve"/>
      <point x="212" y="-10"/>
      <point x="64" y="136"/>
      <point x="64" y="343" type="curve" smooth="yes"/>
      <point x="64" y="552"/>
      <point x="212" y="698"/>
      <point x="420" y="698" type="curve"/>
      <point x="520" y="698"/>
      <point x="600" y="669"/>
      <point x="665" y="627" type="curve"/>
      <point x="665" y="591" type="line"/>
      <point x="603" y="634"/>
      <point x="522" y="670"/>
      <point x="420" y="670" type="curve"/>
      <point x="228" y="670"/>
      <point x="94" y="535"/>
      <point x="94" y="343" type="curve" smooth="yes"/>
      <point x="94" y="153"/>
      <point x="228" y="18"/>
    </contour>
    <contour>
      <point x="635" y="61" type="line"/>
      <point x="635" y="331" type="line"/>
      <point x="355" y="331" type="line"/>
      <point x="355" y="359" type="line"/>
      <point x="665" y="359" type="line"/>
      <point x="665" y="75" type="line"/>
    </contour>
    <contour>
      <point x="414" y="344" type="move" name="center"/>
    </contour>
  </outline>
</glyph>
<glyph name="H" format="1">
  <advance width="735"/>
  <unicode hex="0048"/>
  <outline>
    <contour>
      <point x="104" y="688" type="line"/>
      <point x="104" y="0" type="line"/>
      <point x="134" y="0" type="line"/>
      <point x="134" y="688" type="line"/>
    </contour>
    <contour>
      <point x="601" y="688" type="line"/>
      <point x="601" y="0" type="line"/>
      <point x="631" y="0" type="line"/>
      <point x="631" y="688" type="line"/>
    </contour>
    <contour>
      <point x="122" y="339" type="line"/>
      <point x="615" y="339" type="line"/>
      <point x="615" y="367" type="line"/>
      <point x="122" y="367" type="line"/>
    </contour>
  </outline>
</glyph>
<glyph name="J" format="1">
  <advance width="524"/>
  <unicode hex="004A"/>
  <outline>
    <contour>
      <point x="19" y="102" type="line"/>
      <point x="57" y="65"/>
      <point x="138" y="20"/>
      <point x="229" y="20" type="curve" smooth="yes"/>
      <point x="324" y="20"/>
      <point x="400" y="68"/>
      <point x="400" y="191" type="curve"/>
      <point x="400" y="688" type="line"/>
      <point x="430" y="688" type="line"/>
      <point x="430" y="193" type="line"/>
      <point x="430" y="45"/>
      <point x="335" y="-10"/>
      <point x="229" y="-10" type="curve" smooth="yes"/>
      <point x="145" y="-10"/>
      <point x="67" y="26"/>
      <point x="19" y="65" type="curve"/>
    </contour>
  </outline>
</glyph>
<glyph name="K" format="1">
  <advance width="600.0"/>
  <unicode hex="004B"/>
  <outline>
    <contour>
      <point x="104" y="688" type="line"/>
      <point x="104" y="0" type="line"/>
      <point x="134" y="0" type="line"/>
      <point x="134" y="688" type="line"/>
    </contour>
    <contour>
      <point x="590" y="0" type="line"/>
      <point x="333" y="355" type="line"/>
      <point x="571" y="688" type="line"/>
      <point x="535" y="688" type="line"/>
      <point x="298" y="354" type="line"/>
      <point x="556" y="0" type="line"/>
    </contour>
    <contour>
      <point x="111" y="340" type="line"/>
      <point x="328" y="340" type="line"/>
      <point x="328" y="368" type="line"/>
      <point x="111" y="368" type="line"/>
    </contour>
    <contour>
      <point x="307" y="344" type="move" name="center"/>
    </contour>
  </outline>
</glyph>
<glyph name="L" format="1">
  <advance width="574"/>
  <unicode hex="004C"/>
  <outline>
    <contour>
      <point x="104" y="688" type="line"/>
      <point x="104" y="0" type="line"/>
      <point x="134" y="0" type="line"/>
      <point x="134" y="688" type="line"/>
    </contour>
    <contour>
      <point x="120" y="0" type="line"/>
      <point x="555" y="0" type="line"/>
      <point x="555" y="28" type="line"/>
      <point x="120" y="28" type="line"/>
    </contour>
  </outline>
</glyph>
<glyph name="M" format="1">
  <advance width="958"/>
  <unicode hex="004D"/>
  <outline>
    <contour>
      <point x="463" y="0" type="line"/>
      <point x="495" y="0" type="line"/>
      <point x="824" y="636" type="line"/>
      <point x="824" y="0" type="line"/>
      <point x="854" y="0" type="line"/>
      <point x="854" y="688" type="line"/>
      <point x="816" y="688" type="line"/>
      <point x="479" y="34" type="line"/>
      <point x="142" y="688" type="line"/>
      <point x="104" y="688" type="line"/>
      <point x="104" y="0" type="line"/>
      <point x="134" y="0" type="line"/>
      <point x="134" y="636" type="line"/>
    </contour>
  </outline>
</glyph>
<glyph name="N" format="1">
  <advance width="725"/>
  <unicode hex="004E"/>
  <outline>
    <contour>
      <point x="127" y="688" type="line"/>
      <point x="99" y="688" type="line"/>
      <point x="99" y="0" type="line"/>
      <point x="129" y="0" type="line"/>
      <point x="129" y="634" type="line"/>
      <point x="598" y="0" type="line"/>
      <point x="626" y="0" type="line"/>
      <point x="626" y="688" type="line"/>
      <point x="596" y="688" type="line"/>
      <point x="596" y="54" type="line"/>
    </contour>
  </outline>
</glyph>
<glyph name="Q" format="1">
  <advance width="819"/>
  <unicode hex="0051"/>
  <outline>
    <contour>
      <point x="410" y="-10" type="curve" smooth="yes"/>
      <point x="605" y="-10"/>
      <point x="755" y="136"/>
      <point x="755" y="343" type="curve" smooth="yes"/>
      <point x="755" y="552"/>
      <point x="605" y="698"/>
      <point x="410" y="698" type="curve" smooth="yes"/>
      <point x="214" y="698"/>
      <point x="64" y="552"/>
      <point x="64" y="343" type="curve" smooth="yes"/>
      <point x="64" y="136"/>
      <point x="214" y="-10"/>
    </contour>
    <contour>
      <point x="410" y="20" type="curve" smooth="yes"/>
      <point x="230" y="20"/>
      <point x="94" y="154"/>
      <point x="94" y="343" type="curve" smooth="yes"/>
      <point x="94" y="534"/>
      <point x="230" y="668"/>
      <point x="410" y="668" type="curve" smooth="yes"/>
      <point x="589" y="668"/>
      <point x="725" y="534"/>
      <point x="725" y="343" type="curve" smooth="yes"/>
      <point x="725" y="154"/>
      <point x="589" y="20"/>
    </contour>
    <contour>
      <point x="375" y="305" type="line"/>
      <point x="745" y="0" type="line"/>
      <point x="789" y="0" type="line"/>
      <point x="419" y="305" type="line"/>
    </contour>
  </outline>
</glyph>
<glyph name="V" format="1">
  <advance width="660"/>
  <unicode hex="0056"/>
  <outline>
    <contour>
      <point x="314" y="0" type="line"/>
      <point x="346" y="0" type="line"/>
      <point x="650" y="688" type="line"/>
      <point x="618" y="688" type="line"/>
      <point x="330" y="32" type="line"/>
      <point x="42" y="688" type="line"/>
      <point x="10" y="688" type="line"/>
    </contour>
  </outline>
</glyph>
<glyph name="X" format="1">
  <advance width="592"/>
  <unicode hex="0058"/>
  <outline>
    <contour>
      <point x="53" y="0" type="line"/>
      <point x="300" y="340" type="line"/>
      <point x="309" y="340" type="line"/>
      <point x="572" y="688" type="line"/>
      <point x="535" y="688" type="line"/>
      <point x="294" y="367" type="line"/>
      <point x="281" y="361" type="line"/>
      <point x="20" y="0" type="line"/>
    </contour>
    <contour>
      <point x="539" y="0" type="line"/>
      <point x="572" y="0" type="line"/>
      <point x="311" y="361" type="line"/>
      <point x="300" y="367" type="line"/>
      <point x="57" y="688" type="line"/>
      <point x="20" y="688" type="line"/>
      <point x="283" y="340" type="line"/>
      <point x="290" y="340" type="line"/>
    </contour>
  </outline>
</glyph>
<glyph name="Y" format="1">
  <advance width="570"/>
  <unicode hex="0059"/>
  <outline>
    <contour>
      <point x="300" y="293" type="line"/>
      <point x="565" y="688" type="line"/>
      <point x="532" y="688" type="line"/>
      <point x="285" y="322" type="line"/>
      <point x="38" y="688" type="line"/>
      <point x="5" y="688" type="line"/>
      <point x="270" y="293" type="line"/>
      <point x="270" y="0" type="line"/>
      <point x="300" y="0" type="line"/>
    </contour>
  </outline>
</glyph>
<glyph name="Z" format="1">
  <advance width="659"/>
  <unicode hex="005A"/>
  <outline>
    <contour>
      <point x="39" y="26" type="line"/>
      <point x="39" y="0" type="line"/>
      <point x="620" y="0" type="line"/>
      <point x="620" y="28" type="line"/>
      <point x="75" y="28" type="line"/>
      <point x="590" y="662" type="line"/>
      <point x="590" y="688" type="line"/>
      <point x="78" y="688" type="line"/>
      <point x="78" y="660" type="line"/>
      <point x="551" y="660" type="line"/>
    </contour>
  </outline>
</glyph>
<glyph name="backslash" format="1">
  <advance width="406"/>
  <unicode hex="005C"/>
  <outline>
    <contour>
      <point x="359" y="-40" type="line"/>
      <point x="387" y="-40" type="line"/>
      <point x="47" y="790" type="line"/>
      <point x="19" y="790" type="line"/>
    </contour>
  </outline>
</glyph>
<glyph name="bracketright" format="1">
  <advance width="280"/>
  <unicode hex="005D"/>
  <outline>
    <contour>
      <point x="29" y="-31" type="line"/>
      <point x="176" y="-31" type="line"/>
      <point x="176" y="719" type="line"/>
      <point x="29" y="719" type="line"/>
      <point x="29" y="691" type="line"/>
      <point x="148" y="691" type="line"/>
      <point x="148" y="-3" type="line"/>
      <point x="29" y="-3" type="line"/>
    </contour>
  </outline>
</glyph>
<glyph name="asciicircum" format="1">
  <advance width="375"/>
  <unicode hex="005E"/>
  <outline>
    <contour>
      <point x="40" y="326" type="line"/>
      <point x="199" y="676" type="line"/>
      <point x="177" y="678" type="line"/>
      <point x="335" y="326" type="line"/>
      <point x="366" y="326" type="line"/>
      <point x="199" y="688" type="line"/>
      <point x="177" y="688" type="line"/>
      <point x="9" y="326" type="line"/>
    </contour>
  </outline>
</glyph>
<glyph name="underscore" format="1">
  <advance width="393"/>
  <unicode hex="005F"/>
  <outline>
    <contour>
      <point x="-11" y="-20" type="line"/>
      <point x="-11" y="-20"/>
      <point x="-11" y="-50"/>
      <point x="-11" y="-50" type="curve"/>
      <point x="404" y="-50" type="line"/>
      <point x="404" y="-20" type="line"/>
    </contour>
  </outline>
</glyph>
<glyph name="grave" format="1">
  <advance width="269"/>
  <unicode hex="0060"/>
  <outline>
    <contour>
      <point x="107" y="756" type="line"/>
      <point x="64" y="756" type="line"/>
      <point x="174" y="600" type="line"/>
      <point x="174" y="600"/>
      <point x="205" y="600"/>
      <point x="205" y="600" type="curve"/>
    </contour>
    <contour>
      <point x="184" y="678" type="move" name="center"/>
    </contour>
  </outline>
</glyph>
<glyph name="a" format="1">
  <advance width="539"/>
  <unicode hex="0061"/>
  <outline>
    <contour>
      <point x="437" y="131" type="line"/>
      <point x="380" y="71"/>
      <point x="307" y="18"/>
      <point x="218" y="18" type="curve"/>
      <point x="147" y="18"/>
      <point x="89" y="48"/>
      <point x="89" y="122" type="curve"/>
      <point x="89" y="197"/>
      <point x="157" y="257"/>
      <point x="306" y="257" type="curve"/>
      <point x="357" y="257"/>
      <point x="411" y="245"/>
      <point x="435" y="235" type="curve"/>
      <point x="433" y="263" type="line"/>
      <point x="407" y="272"/>
      <point x="357" y="283"/>
      <point x="294" y="283" type="curve"/>
      <point x="138" y="283"/>
      <point x="59" y="209"/>
      <point x="59" y="122" type="curve"/>
      <point x="59" y="46"/>
      <point x="109" y="-10"/>
      <point x="218" y="-10" type="curve"/>
      <point x="315" y="-10"/>
      <point x="391" y="47"/>
      <point x="439" y="105" type="curve"/>
    </contour>
    <contour>
      <point x="425" y="349" type="curve"/>
      <point x="425" y="108" type="line"/>
      <point x="427" y="104" type="line"/>
      <point x="427" y="0" type="line"/>
      <point x="455" y="0" type="line"/>
      <point x="455" y="344" type="line"/>
      <point x="455" y="488"/>
      <point x="361" y="540"/>
      <point x="262" y="540" type="curve"/>
      <point x="168" y="540"/>
      <point x="93" y="491"/>
      <point x="60" y="453" type="curve"/>
      <point x="60" y="418" type="line"/>
      <point x="104" y="467"/>
      <point x="170" y="512"/>
      <point x="262" y="512" type="curve"/>
      <point x="345" y="512"/>
      <point x="425" y="469"/>
    </contour>
  </outline>
</glyph>
<glyph name="b" format="1">
  <advance width="597"/>
  <unicode hex="0062"/>
  <outline>
    <contour>
      <point x="119" y="698" type="line"/>
      <point x="119" y="27" type="line"/>
      <point x="99" y="53" type="line"/>
      <point x="150" y="35"/>
      <point x="208" y="18"/>
      <point x="284" y="18" type="curve" smooth="yes"/>
      <point x="419" y="18"/>
      <point x="508" y="109"/>
      <point x="508" y="275" type="curve" smooth="yes"/>
      <point x="508" y="416"/>
      <point x="431" y="512"/>
      <point x="307" y="512" type="curve"/>
      <point x="212" y="512"/>
      <point x="141" y="459"/>
      <point x="109" y="426" type="curve"/>
      <point x="109" y="457" type="line"/>
      <point x="137" y="487"/>
      <point x="212" y="540"/>
      <point x="307" y="540" type="curve"/>
      <point x="447" y="540"/>
      <point x="538" y="436"/>
      <point x="538" y="275" type="curve" smooth="yes"/>
      <point x="538" y="91"/>
      <point x="432" y="-10"/>
      <point x="284" y="-10" type="curve" smooth="yes"/>
      <point x="204" y="-10"/>
      <point x="142" y="8"/>
      <point x="89" y="27" type="curve"/>
      <point x="89" y="688" type="line"/>
    </contour>
  </outline>
</glyph>
<glyph name="e" format="1">
  <advance width="581"/>
  <unicode hex="0065"/>
  <outline>
    <contour>
      <point x="89" y="270" type="line" smooth="yes"/>
      <point x="89" y="430"/>
      <point x="182" y="512"/>
      <point x="297" y="512" type="curve"/>
      <point x="417" y="512"/>
      <point x="485" y="431"/>
      <point x="489" y="278" type="curve"/>
      <point x="76" y="278" type="line"/>
      <point x="76" y="249" type="line"/>
      <point x="519" y="249" type="line"/>
      <point x="519" y="265" type="line"/>
      <point x="519" y="445"/>
      <point x="438" y="542"/>
      <point x="297" y="542" type="curve"/>
      <point x="161" y="542"/>
      <point x="59" y="445"/>
      <point x="59" y="265" type="curve" smooth="yes"/>
      <point x="59" y="80"/>
      <point x="174" y="-10"/>
      <point x="324" y="-10" type="curve" smooth="yes"/>
      <point x="384" y="-10"/>
      <point x="461" y="1"/>
      <point x="502" y="27" type="curve"/>
      <point x="502" y="58" type="line"/>
      <point x="467" y="33"/>
      <point x="387" y="20"/>
      <point x="324" y="20" type="curve" smooth="yes"/>
      <point x="198" y="20"/>
      <point x="89" y="95"/>
      <point x="89" y="259" type="curve" smooth="yes"/>
    </contour>
  </outline>
</glyph>
<glyph name="f" format="1">
  <advance width="344"/>
  <unicode hex="0066"/>
  <outline>
    <contour>
      <point x="365" y="663" type="line"/>
      <point x="348" y="677"/>
      <point x="308" y="698"/>
      <point x="256" y="698" type="curve"/>
      <point x="192" y="698"/>
      <point x="121" y="659"/>
      <point x="121" y="551" type="curve"/>
      <point x="121" y="0" type="line"/>
      <point x="151" y="0" type="line"/>
      <point x="151" y="553" type="line"/>
      <point x="151" y="622"/>
      <point x="186" y="669"/>
      <point x="256" y="669" type="curve"/>
      <point x="301" y="669"/>
      <point x="339" y="652"/>
      <point x="365" y="632" type="curve"/>
    </contour>
    <contour>
      <point x="38" y="502" type="line"/>
      <point x="308" y="502" type="line"/>
      <point x="308" y="530" type="line"/>
      <point x="38" y="530" type="line"/>
    </contour>
  </outline>
</glyph>
<glyph name="j" format="1">
  <advance width="207"/>
  <unicode hex="006A"/>
  <outline>
    <contour>
      <point x="39" y="-168" type="line"/>
      <point x="82" y="-145"/>
      <point x="118" y="-107"/>
      <point x="118" y="-38" type="curve"/>
      <point x="118" y="530" type="line"/>
      <point x="88" y="530" type="line"/>
      <point x="88" y="-40" type="line"/>
      <point x="88" y="-89"/>
      <point x="65" y="-122"/>
      <point x="21" y="-143" type="curve"/>
    </contour>
    <contour>
      <point x="103" y="627" type="curve" smooth="yes"/>
      <point x="120" y="627"/>
      <point x="134" y="641"/>
      <point x="134" y="658" type="curve" smooth="yes"/>
      <point x="134" y="675"/>
      <point x="120" y="689"/>
      <point x="103" y="689" type="curve" smooth="yes"/>
      <point x="86" y="689"/>
      <point x="72" y="675"/>
      <point x="72" y="658" type="curve" smooth="yes"/>
      <point x="72" y="641"/>
      <point x="86" y="627"/>
    </contour>
  </outline>
</glyph>
<glyph name="k" format="1">
  <advance width="496"/>
  <unicode hex="006B"/>
  <outline>
    <contour>
      <point x="89" y="688" type="line"/>
      <point x="89" y="0" type="line"/>
      <point x="119" y="0" type="line"/>
      <point x="119" y="698" type="line"/>
    </contour>
    <contour>
      <point x="225" y="305" type="line"/>
      <point x="435" y="0" type="line"/>
      <point x="470" y="0" type="line"/>
      <point x="261" y="303" type="line"/>
      <point x="472" y="530" type="line"/>
      <point x="434" y="530" type="line"/>
    </contour>
    <contour>
      <point x="101" y="290" type="line"/>
      <point x="249" y="290" type="line"/>
      <point x="249" y="318" type="line"/>
      <point x="101" y="318" type="line"/>
    </contour>
    <contour>
      <point x="260" y="349" type="move" name="center"/>
    </contour>
  </outline>
</glyph>
<glyph name="l" format="1">
  <advance width="208"/>
  <unicode hex="006C"/>
  <outline>
    <contour>
      <point x="89" y="688" type="line"/>
      <point x="89" y="0" type="line"/>
      <point x="119" y="0" type="line"/>
      <point x="119" y="698" type="line"/>
    </contour>
  </outline>
</glyph>
<glyph name="m" format="1">
  <advance width="955"/>
  <unicode hex="006D"/>
  <outline>
    <contour>
      <point x="89" y="530" type="line"/>
      <point x="89" y="0" type="line"/>
      <point x="119" y="0" type="line"/>
      <point x="119" y="444" type="line"/>
      <point x="117" y="458" type="line"/>
      <point x="117" y="530" type="line"/>
    </contour>
    <contour>
      <point x="316" y="512" type="curve" smooth="yes"/>
      <point x="398" y="512"/>
      <point x="465" y="463"/>
      <point x="465" y="347" type="curve" smooth="yes"/>
      <point x="465" y="0" type="line"/>
      <point x="495" y="0" type="line"/>
      <point x="495" y="357" type="line" smooth="yes"/>
      <point x="495" y="485"/>
      <point x="414" y="540"/>
      <point x="316" y="540" type="curve" smooth="yes"/>
      <point x="224" y="540"/>
      <point x="159" y="491"/>
      <point x="112" y="456" type="curve"/>
      <point x="115" y="430" type="line"/>
      <point x="156" y="460"/>
      <point x="233" y="512"/>
    </contour>
    <contour>
      <point x="692" y="512" type="curve" smooth="yes"/>
      <point x="774" y="512"/>
      <point x="841" y="463"/>
      <point x="841" y="347" type="curve" smooth="yes"/>
      <point x="841" y="0" type="line"/>
      <point x="871" y="0" type="line"/>
      <point x="871" y="347" type="line" smooth="yes"/>
      <point x="871" y="485"/>
      <point x="790" y="540"/>
      <point x="692" y="540" type="curve" smooth="yes"/>
      <point x="591" y="540"/>
      <point x="520" y="488"/>
      <point x="468" y="446" type="curve"/>
      <point x="471" y="420" type="line"/>
      <point x="516" y="456"/>
      <point x="601" y="512"/>
    </contour>
  </outline>
</glyph>
<glyph name="o" format="1">
  <advance width="649"/>
  <unicode hex="006F"/>
  <outline>
    <contour>
      <point x="324" y="-10" type="curve" smooth="yes"/>
      <point x="170" y="-10"/>
      <point x="59" y="109"/>
      <point x="59" y="265" type="curve" smooth="yes"/>
      <point x="59" y="421"/>
      <point x="170" y="540"/>
      <point x="324" y="540" type="curve" smooth="yes"/>
      <point x="479" y="540"/>
      <point x="590" y="421"/>
      <point x="590" y="265" type="curve" smooth="yes"/>
      <point x="590" y="109"/>
      <point x="479" y="-10"/>
    </contour>
    <contour>
      <point x="324" y="18" type="curve" smooth="yes"/>
      <point x="464" y="18"/>
      <point x="560" y="126"/>
      <point x="560" y="265" type="curve" smooth="yes"/>
      <point x="560" y="404"/>
      <point x="464" y="512"/>
      <point x="324" y="512" type="curve" smooth="yes"/>
      <point x="186" y="512"/>
      <point x="89" y="404"/>
      <point x="89" y="265" type="curve" smooth="yes"/>
      <point x="89" y="126"/>
      <point x="186" y="18"/>
    </contour>
  </outline>
</glyph>
<glyph name="p" format="1">
  <advance width="597"/>
  <unicode hex="0070"/>
  <outline>
    <contour>
      <point x="99" y="27" type="line"/>
      <point x="146" y="9"/>
      <point x="193" y="-10"/>
      <point x="269" y="-10" type="curve"/>
      <point x="427" y="-10"/>
      <point x="538" y="96"/>
      <point x="538" y="280" type="curve" smooth="yes"/>
      <point x="538" y="441"/>
      <point x="447" y="540"/>
      <point x="307" y="540" type="curve"/>
      <point x="212" y="540"/>
      <point x="137" y="487"/>
      <point x="109" y="457" type="curve"/>
      <point x="109" y="426" type="line"/>
      <point x="141" y="459"/>
      <point x="212" y="512"/>
      <point x="307" y="512" type="curve"/>
      <point x="431" y="512"/>
      <point x="508" y="421"/>
      <point x="508" y="280" type="curve" smooth="yes"/>
      <point x="508" y="114"/>
      <point x="414" y="18"/>
      <point x="269" y="18" type="curve"/>
      <point x="197" y="18"/>
      <point x="154" y="36"/>
      <point x="109" y="53" type="curve"/>
    </contour>
    <contour>
      <point x="119" y="442" type="line"/>
      <point x="117" y="446" type="line"/>
      <point x="117" y="530" type="line"/>
      <point x="89" y="530" type="line"/>
      <point x="89" y="-158" type="line"/>
      <point x="119" y="-158" type="line"/>
    </contour>
  </outline>
</glyph>
<glyph name="q" format="1">
  <advance width="607"/>
  <unicode hex="0071"/>
  <outline>
    <contour>
      <point x="488" y="-158" type="line"/>
      <point x="488" y="503" type="line"/>
      <point x="508" y="477" type="line"/>
      <point x="455" y="496"/>
      <point x="393" y="512"/>
      <point x="313" y="512" type="curve" smooth="yes"/>
      <point x="178" y="512"/>
      <point x="89" y="421"/>
      <point x="89" y="255" type="curve" smooth="yes"/>
      <point x="89" y="114"/>
      <point x="166" y="18"/>
      <point x="290" y="18" type="curve"/>
      <point x="390" y="18"/>
      <point x="465" y="70"/>
      <point x="498" y="104" type="curve"/>
      <point x="498" y="73" type="line"/>
      <point x="469" y="42"/>
      <point x="390" y="-10"/>
      <point x="290" y="-10" type="curve"/>
      <point x="150" y="-10"/>
      <point x="59" y="94"/>
      <point x="59" y="255" type="curve" smooth="yes"/>
      <point x="59" y="439"/>
      <point x="165" y="540"/>
      <point x="313" y="540" type="curve" smooth="yes"/>
      <point x="397" y="540"/>
      <point x="463" y="523"/>
      <point x="518" y="503" type="curve"/>
      <point x="518" y="-158" type="line"/>
    </contour>
  </outline>
</glyph>
<glyph name="s" format="1">
  <advance width="473"/>
  <unicode hex="0073"/>
  <outline>
    <contour>
      <point x="298" y="257" type="curve" smooth="yes"/>
      <point x="211" y="285" type="line" smooth="yes"/>
      <point x="137" y="309"/>
      <point x="82" y="335"/>
      <point x="82" y="406" type="curve"/>
      <point x="82" y="478"/>
      <point x="150" y="514"/>
      <point x="225" y="514" type="curve"/>
      <point x="296" y="514"/>
      <point x="364" y="485"/>
      <point x="404" y="456" type="curve"/>
      <point x="404" y="491" type="line"/>
      <point x="363" y="518"/>
      <point x="297" y="542"/>
      <point x="224" y="542" type="curve"/>
      <point x="118" y="542"/>
      <point x="52" y="480"/>
      <point x="52" y="406" type="curve"/>
      <point x="52" y="322"/>
      <point x="112" y="286"/>
      <point x="181" y="264" type="curve" smooth="yes"/>
      <point x="276" y="234" type="line" smooth="yes"/>
      <point x="350" y="211"/>
      <point x="399" y="187"/>
      <point x="399" y="117" type="curve"/>
      <point x="399" y="39"/>
      <point x="342" y="11"/>
      <point x="259" y="11" type="curve"/>
      <point x="173" y="11"/>
      <point x="89" y="47"/>
      <point x="44" y="78" type="curve"/>
      <point x="44" y="43" type="line"/>
      <point x="90" y="15"/>
      <point x="170" y="-17"/>
      <point x="260" y="-17" type="curve"/>
      <point x="368" y="-17"/>
      <point x="429" y="31"/>
      <point x="429" y="117" type="curve"/>
      <point x="429" y="201"/>
      <point x="366" y="235"/>
    </contour>
  </outline>
</glyph>
<glyph name="t" format="1">
  <advance width="395"/>
  <unicode hex="0074"/>
  <outline>
    <contour>
      <point x="356" y="24" type="curve"/>
      <point x="356" y="56" type="line"/>
      <point x="330" y="36"/>
      <point x="293" y="19"/>
      <point x="248" y="19" type="curve"/>
      <point x="180" y="19"/>
      <point x="142" y="53"/>
      <point x="142" y="128" type="curve"/>
      <point x="142" y="502" type="line"/>
      <point x="349" y="502" type="line"/>
      <point x="349" y="530" type="line"/>
      <point x="142" y="530" type="line"/>
      <point x="142" y="630" type="line"/>
      <point x="132" y="630" type="line"/>
      <point x="29" y="512" type="line"/>
      <point x="29" y="502" type="line"/>
      <point x="112" y="502" type="line"/>
      <point x="112" y="130" type="line"/>
      <point x="112" y="16"/>
      <point x="183" y="-10"/>
      <point x="247" y="-10" type="curve"/>
      <point x="299" y="-10"/>
      <point x="336" y="8"/>
    </contour>
  </outline>
</glyph>
<glyph name="v" format="1">
  <advance width="513"/>
  <unicode hex="0076"/>
  <outline>
    <contour>
      <point x="240" y="0" type="line"/>
      <point x="273" y="0" type="line"/>
      <point x="503" y="530" type="line"/>
      <point x="470" y="530" type="line"/>
      <point x="257" y="32" type="line"/>
      <point x="43" y="530" type="line"/>
      <point x="10" y="530" type="line"/>
    </contour>
  </outline>
</glyph>
<glyph name="cent" format="1">
  <advance width="531"/>
  <unicode hex="00A2"/>
  <outline>
    <contour>
      <point x="344" y="-10" type="curve" smooth="yes"/>
      <point x="398" y="-10"/>
      <point x="448" y="5"/>
      <point x="482" y="27" type="curve"/>
      <point x="482" y="58" type="line"/>
      <point x="453" y="37"/>
      <point x="401" y="20"/>
      <point x="344" y="20" type="curve" smooth="yes"/>
      <point x="200" y="20"/>
      <point x="89" y="117"/>
      <point x="89" y="265" type="curve" smooth="yes"/>
      <point x="89" y="416"/>
      <point x="200" y="512"/>
      <point x="344" y="512" type="curve" smooth="yes"/>
      <point x="401" y="512"/>
      <point x="454" y="497"/>
      <point x="482" y="475" type="curve"/>
      <point x="482" y="506" type="line"/>
      <point x="448" y="529"/>
      <point x="398" y="542"/>
      <point x="344" y="542" type="curve" smooth="yes"/>
      <point x="183" y="542"/>
      <point x="59" y="435"/>
      <point x="59" y="265" type="curve" smooth="yes"/>
      <point x="59" y="99"/>
      <point x="183" y="-10"/>
    </contour>
    <contour>
      <point x="324" y="-87" type="line"/>
      <point x="324" y="12" type="line"/>
      <point x="296" y="12" type="line"/>
      <point x="296" y="-87" type="line"/>
    </contour>
    <contour>
      <point x="324" y="525" type="line"/>
      <point x="324" y="619" type="line"/>
      <point x="296" y="619" type="line"/>
      <point x="296" y="525" type="line"/>
    </contour>
  </outline>
</glyph>
<glyph name="brokenbar" format="1">
  <advance width="236"/>
  <unicode hex="00A6"/>
  <outline>
    <contour>
      <point x="132" y="344" type="line"/>
      <point x="132" y="688" type="line"/>
      <point x="104" y="688" type="line"/>
      <point x="104" y="344" type="line"/>
    </contour>
    <contour>
      <point x="132" y="-158" type="line"/>
      <point x="132" y="186" type="line"/>
      <point x="104" y="186" type="line"/>
      <point x="104" y="-158" type="line"/>
    </contour>
  </outline>
</glyph>
<glyph name="section" format="1">
  <advance width="513"/>
  <unicode hex="00A7"/>
  <outline>
    <contour>
      <point x="315" y="266" type="curve" smooth="yes"/>
      <point x="226" y="294" type="line" smooth="yes"/>
      <point x="144" y="320"/>
      <point x="97" y="343"/>
      <point x="97" y="414" type="curve"/>
      <point x="97" y="463"/>
      <point x="124" y="495"/>
      <point x="158" y="510" type="curve"/>
      <point x="139" y="529" type="line"/>
      <point x="90" y="504"/>
      <point x="67" y="462"/>
      <point x="67" y="414" type="curve"/>
      <point x="67" y="330"/>
      <point x="119" y="297"/>
      <point x="196" y="273" type="curve" smooth="yes"/>
      <point x="291" y="243" type="line" smooth="yes"/>
      <point x="365" y="220"/>
      <point x="414" y="195"/>
      <point x="414" y="124" type="curve"/>
      <point x="414" y="46"/>
      <point x="353" y="18"/>
      <point x="264" y="18" type="curve"/>
      <point x="192" y="18"/>
      <point x="103" y="55"/>
      <point x="59" y="85" type="curve"/>
      <point x="59" y="50" type="line"/>
      <point x="103" y="23"/>
      <point x="189" y="-10"/>
      <point x="265" y="-10" type="curve"/>
      <point x="379" y="-10"/>
      <point x="444" y="38"/>
      <point x="444" y="124" type="curve"/>
      <point x="444" y="209"/>
      <point x="382" y="245"/>
    </contour>
    <contour>
      <point x="325" y="477" type="curve" smooth="yes"/>
      <point x="236" y="505" type="line" smooth="yes"/>
      <point x="154" y="531"/>
      <point x="107" y="554"/>
      <point x="107" y="625" type="curve"/>
      <point x="107" y="696"/>
      <point x="164" y="732"/>
      <point x="250" y="732" type="curve"/>
      <point x="321" y="732"/>
      <point x="389" y="703"/>
      <point x="429" y="674" type="curve"/>
      <point x="429" y="709" type="line"/>
      <point x="388" y="736"/>
      <point x="322" y="760"/>
      <point x="249" y="760" type="curve"/>
      <point x="132" y="760"/>
      <point x="77" y="698"/>
      <point x="77" y="625" type="curve"/>
      <point x="77" y="541"/>
      <point x="129" y="508"/>
      <point x="206" y="484" type="curve" smooth="yes"/>
      <point x="301" y="454" type="line" smooth="yes"/>
      <point x="375" y="431"/>
      <point x="424" y="406"/>
      <point x="424" y="335" type="curve"/>
      <point x="424" y="285"/>
      <point x="399" y="255"/>
      <point x="367" y="241" type="curve"/>
      <point x="385" y="222" type="line"/>
      <point x="430" y="244"/>
      <point x="454" y="283"/>
      <point x="454" y="335" type="curve"/>
      <point x="454" y="420"/>
      <point x="392" y="456"/>
    </contour>
  </outline>
</glyph>
<glyph name="copyright" format="1">
  <advance width="836"/>
  <unicode hex="00A9"/>
  <outline>
    <contour>
      <point x="418" y="0" type="curve" smooth="yes"/>
      <point x="608" y="0"/>
      <point x="762" y="155"/>
      <point x="762" y="345" type="curve" smooth="yes"/>
      <point x="762" y="534"/>
      <point x="607" y="689"/>
      <point x="418" y="689" type="curve" smooth="yes"/>
      <point x="228" y="689"/>
      <point x="74" y="534"/>
      <point x="74" y="345" type="curve" smooth="yes"/>
      <point x="74" y="156"/>
      <point x="228" y="0"/>
    </contour>
    <contour>
      <point x="418" y="-30" type="curve" smooth="yes"/>
      <point x="211" y="-30"/>
      <point x="44" y="139"/>
      <point x="44" y="345" type="curve" smooth="yes"/>
      <point x="44" y="550"/>
      <point x="211" y="719"/>
      <point x="418" y="719" type="curve" smooth="yes"/>
      <point x="624" y="719"/>
      <point x="792" y="551"/>
      <point x="792" y="345" type="curve" smooth="yes"/>
      <point x="792" y="138"/>
      <point x="624" y="-30"/>
    </contour>
    <contour>
      <point x="558" y="535" type="curve"/>
      <point x="558" y="506" type="line"/>
      <point x="536" y="523"/>
      <point x="493" y="535"/>
      <point x="448" y="535" type="curve" smooth="yes"/>
      <point x="338" y="535"/>
      <point x="253" y="461"/>
      <point x="253" y="344" type="curve" smooth="yes"/>
      <point x="253" y="229"/>
      <point x="338" y="153"/>
      <point x="448" y="153" type="curve" smooth="yes"/>
      <point x="493" y="153"/>
      <point x="535" y="166"/>
      <point x="558" y="183" type="curve"/>
      <point x="558" y="155" type="line"/>
      <point x="531" y="138"/>
      <point x="492" y="125"/>
      <point x="448" y="125" type="curve" smooth="yes"/>
      <point x="321" y="125"/>
      <point x="223" y="212"/>
      <point x="223" y="344" type="curve" smooth="yes"/>
      <point x="223" y="478"/>
      <point x="321" y="563"/>
      <point x="448" y="563" type="curve" smooth="yes"/>
      <point x="492" y="563"/>
      <point x="531" y="552"/>
    </contour>
  </outline>
</glyph>
<glyph name="guillemotleft" format="1">
  <advance width="422"/>
  <unicode hex="00AB"/>
  <outline>
    <contour>
      <point x="44" y="248" type="line"/>
      <point x="44" y="282" type="line"/>
      <point x="190" y="364" type="line"/>
      <point x="190" y="331" type="line"/>
      <point x="69" y="265" type="line"/>
      <point x="190" y="199" type="line"/>
      <point x="190" y="166" type="line"/>
    </contour>
    <contour>
      <point x="222" y="248" type="line"/>
      <point x="222" y="282" type="line"/>
      <point x="368" y="364" type="line"/>
      <point x="368" y="331" type="line"/>
      <point x="247" y="265" type="line"/>
      <point x="368" y="199" type="line"/>
      <point x="368" y="166" type="line"/>
    </contour>
  </outline>
</glyph>
<glyph name="degree" format="1">
  <advance width="508"/>
  <unicode hex="00B0"/>
  <outline>
    <contour>
      <point x="238" y="454" type="curve" smooth="yes"/>
      <point x="298" y="454"/>
      <point x="339" y="503"/>
      <point x="339" y="562" type="curve" smooth="yes"/>
      <point x="339" y="621"/>
      <point x="298" y="670"/>
      <point x="238" y="670" type="curve" smooth="yes"/>
      <point x="178" y="670"/>
      <point x="137" y="621"/>
      <point x="137" y="562" type="curve" smooth="yes"/>
      <point x="137" y="503"/>
      <point x="178" y="454"/>
    </contour>
    <contour>
      <point x="238" y="426" type="curve" smooth="yes"/>
      <point x="161" y="426"/>
      <point x="107" y="487"/>
      <point x="107" y="562" type="curve" smooth="yes"/>
      <point x="107" y="637"/>
      <point x="161" y="698"/>
      <point x="238" y="698" type="curve" smooth="yes"/>
      <point x="315" y="698"/>
      <point x="369" y="637"/>
      <point x="369" y="562" type="curve" smooth="yes"/>
      <point x="369" y="487"/>
      <point x="315" y="426"/>
    </contour>
  </outline>
</glyph>
<glyph name="plusminus" format="1">
  <advance width="499"/>
  <unicode hex="00B1"/>
  <outline>
    <contour>
      <point x="265" y="542" type="line"/>
      <point x="235" y="542" type="line"/>
      <point x="235" y="156" type="line"/>
      <point x="265" y="156" type="line"/>
    </contour>
    <contour>
      <point x="69" y="335" type="line"/>
      <point x="431" y="335" type="line"/>
      <point x="431" y="363" type="line"/>
      <point x="69" y="363" type="line"/>
    </contour>
    <contour>
      <point x="69" y="146" type="line"/>
      <point x="431" y="146" type="line"/>
      <point x="431" y="174" type="line"/>
      <point x="69" y="174" type="line"/>
    </contour>
  </outline>
</glyph>
<glyph name="threesuperior" format="1">
  <advance width="309"/>
  <unicode hex="00B3"/>
  <outline>
    <contour>
      <point x="151" y="316" type="curve" smooth="yes" name="*16ABCF76A"/>
      <point x="224" y="316" name="*16ABCF7D2"/>
      <point x="264" y="366" name="*16ABCF83A"/>
      <point x="264" y="419" type="curve" smooth="yes" name="*16ABCF8A2"/>
      <point x="264" y="468"/>
      <point x="227" y="511"/>
      <point x="160" y="511" type="curve" smooth="yes"/>
      <point x="139" y="511" type="line"/>
      <point x="254" y="616" type="line" name="*168BAF0C2"/>
      <point x="254" y="641" type="line" name="*168BAEF8A"/>
      <point x="63" y="641" type="line" name="*168BAED1A"/>
      <point x="63" y="614" type="line" name="*168BAEE52"/>
      <point x="216" y="614" type="line" name="*168BAF12A"/>
      <point x="101" y="506" type="line" name="*16ABCFA42"/>
      <point x="101" y="487" type="line" name="*16ABCFAAA"/>
      <point x="148" y="487" type="line" name="*168BAF192"/>
      <point x="206" y="487" name="*168BAF1FA"/>
      <point x="234" y="459" name="*168BAF262"/>
      <point x="234" y="419" type="curve" smooth="yes" name="*168BAF2CA"/>
      <point x="234" y="380" name="*168BAF332"/>
      <point x="205" y="344" name="*168BAF39A"/>
      <point x="152" y="344" type="curve" smooth="yes" name="*168BAF402"/>
      <point x="103" y="344"/>
      <point x="70" y="363"/>
      <point x="49" y="380" type="curve"/>
      <point x="49" y="344" type="line"/>
      <point x="69" y="332"/>
      <point x="103" y="316"/>
    </contour>
  </outline>
</glyph>
<glyph name="paragraph" format="1">
  <advance width="441"/>
  <unicode hex="00B6"/>
  <outline>
    <contour>
      <point x="258" y="-60" type="line"/>
      <point x="301" y="-37"/>
      <point x="337" y="1"/>
      <point x="337" y="70" type="curve"/>
      <point x="337" y="688" type="line"/>
      <point x="307" y="688" type="line" smooth="yes"/>
      <point x="155" y="688"/>
      <point x="49" y="596"/>
      <point x="49" y="447" type="curve" smooth="yes"/>
      <point x="49" y="294"/>
      <point x="140" y="210"/>
      <point x="280" y="210" type="curve"/>
      <point x="289" y="210"/>
      <point x="300" y="211"/>
      <point x="307" y="212" type="curve"/>
      <point x="307" y="68" type="line"/>
      <point x="307" y="19"/>
      <point x="284" y="-14"/>
      <point x="240" y="-35" type="curve"/>
    </contour>
  </outline>
</glyph>
<glyph name="periodcentered" format="1">
  <advance width="102"/>
  <unicode hex="00B7"/>
  <outline>
    <contour>
      <point x="51" y="238" type="curve" smooth="yes"/>
      <point x="66" y="238"/>
      <point x="78" y="250"/>
      <point x="78" y="265" type="curve" smooth="yes"/>
      <point x="78" y="279"/>
      <point x="66" y="292"/>
      <point x="51" y="292" type="curve" smooth="yes"/>
      <point x="36" y="292"/>
      <point x="24" y="279"/>
      <point x="24" y="265" type="curve" smooth="yes"/>
      <point x="24" y="250"/>
      <point x="36" y="238"/>
    </contour>
  </outline>
</glyph>
<glyph name="onesuperior" format="1">
  <advance width="309"/>
  <unicode hex="00B9"/>
  <outline>
    <contour>
      <point x="172" y="321" type="line" name="*168B9EBE2"/>
      <point x="172" y="641" type="line" name="*168B9EC4A"/>
      <point x="99" y="641" type="line" name="*168B9EB12"/>
      <point x="87" y="613" type="line" name="*168B9E9DA"/>
      <point x="142" y="613" type="line"/>
      <point x="142" y="321" type="line" name="*168B9EB7A"/>
    </contour>
  </outline>
</glyph>
<glyph name="questiondown" format="1">
  <advance width="525"/>
  <unicode hex="00BF"/>
  <outline>
    <contour>
      <point x="301" y="535" type="curve" smooth="yes"/>
      <point x="283" y="535"/>
      <point x="268" y="520"/>
      <point x="268" y="503" type="curve" smooth="yes"/>
      <point x="268" y="485"/>
      <point x="283" y="470"/>
      <point x="301" y="470" type="curve" smooth="yes"/>
      <point x="318" y="470"/>
      <point x="333" y="485"/>
      <point x="333" y="503" type="curve" smooth="yes"/>
      <point x="333" y="520"/>
      <point x="318" y="535"/>
    </contour>
    <contour>
      <point x="255" y="-168" type="curve"/>
      <point x="377" y="-168"/>
      <point x="466" y="-98"/>
      <point x="496" y="-67" type="curve"/>
      <point x="496" y="-31" type="line"/>
      <point x="460" y="-69"/>
      <point x="373" y="-140"/>
      <point x="255" y="-140" type="curve"/>
      <point x="150" y="-140"/>
      <point x="86" y="-81"/>
      <point x="86" y="5" type="curve"/>
      <point x="86" y="77"/>
      <point x="134" y="114"/>
      <point x="190" y="147" type="curve" smooth="yes"/>
      <point x="323" y="224" type="line" smooth="yes"/>
      <point x="323" y="325" type="line"/>
      <point x="293" y="325" type="line"/>
      <point x="293" y="237" type="line"/>
      <point x="168" y="165" type="line" smooth="yes"/>
      <point x="110" y="132"/>
      <point x="56" y="86"/>
      <point x="56" y="5" type="curve"/>
      <point x="56" y="-113"/>
      <point x="147" y="-168"/>
    </contour>
  </outline>
</glyph>
<glyph name="AE" format="1">
  <advance width="1026"/>
  <unicode hex="00C6"/>
  <outline>
    <contour>
      <point x="521" y="688" type="line"/>
      <point x="521" y="0" type="line"/>
      <point x="551" y="0" type="line"/>
      <point x="551" y="688" type="line"/>
    </contour>
    <contour>
      <point x="537" y="660" type="line"/>
      <point x="972" y="660" type="line"/>
      <point x="972" y="688" type="line"/>
      <point x="537" y="688" type="line"/>
    </contour>
    <contour>
      <point x="537" y="0" type="line"/>
      <point x="972" y="0" type="line"/>
      <point x="972" y="28" type="line"/>
      <point x="537" y="28" type="line"/>
    </contour>
    <contour>
      <point x="537" y="335" type="line"/>
      <point x="922" y="335" type="line"/>
      <point x="922" y="363" type="line"/>
      <point x="537" y="363" type="line"/>
    </contour>
    <contour>
      <point x="544" y="680" type="line"/>
      <point x="525" y="688" type="line"/>
      <point x="516" y="688" type="line"/>
      <point x="4" y="0" type="line"/>
      <point x="39" y="0" type="line"/>
    </contour>
    <contour>
      <point x="242" y="283" type="line"/>
      <point x="527" y="283" type="line"/>
      <point x="527" y="311" type="line"/>
      <point x="242" y="311" type="line"/>
    </contour>
  </outline>
</glyph>
<glyph name="multiply" format="1">
  <advance width="497"/>
  <unicode hex="00D7"/>
  <outline>
    <contour>
      <point x="123" y="491" type="line"/>
      <point x="102" y="470" type="line"/>
      <point x="375" y="197" type="line"/>
      <point x="396" y="218" type="line"/>
    </contour>
    <contour>
      <point x="121" y="197" type="line"/>
      <point x="396" y="472" type="line"/>
      <point x="377" y="491" type="line"/>
      <point x="102" y="216" type="line"/>
    </contour>
  </outline>
</glyph>
<glyph name="Oslash" format="1">
  <advance width="855"/>
  <unicode hex="00D8"/>
  <outline>
    <contour>
      <point x="428" y="-10" type="curve" smooth="yes"/>
      <point x="232" y="-10"/>
      <point x="82" y="136"/>
      <point x="82" y="343" type="curve" smooth="yes"/>
      <point x="82" y="552"/>
      <point x="232" y="698"/>
      <point x="428" y="698" type="curve" smooth="yes"/>
      <point x="623" y="698"/>
      <point x="773" y="552"/>
      <point x="773" y="343" type="curve" smooth="yes"/>
      <point x="773" y="136"/>
      <point x="623" y="-10"/>
    </contour>
    <contour>
      <point x="801" y="688" type="line"/>
      <point x="92" y="0" type="line"/>
      <point x="54" y="0" type="line"/>
      <point x="764" y="688" type="line"/>
    </contour>
    <contour>
      <point x="428" y="20" type="curve" smooth="yes"/>
      <point x="607" y="20"/>
      <point x="743" y="154"/>
      <point x="743" y="343" type="curve" smooth="yes"/>
      <point x="743" y="534"/>
      <point x="607" y="668"/>
      <point x="428" y="668" type="curve" smooth="yes"/>
      <point x="248" y="668"/>
      <point x="112" y="534"/>
      <point x="112" y="343" type="curve" smooth="yes"/>
      <point x="112" y="154"/>
      <point x="248" y="20"/>
    </contour>
  </outline>
</glyph>
<glyph name="Thorn" format="1">
  <advance width="637"/>
  <unicode hex="00DE"/>
  <outline>
    <contour>
      <point x="104" y="688" type="line"/>
      <point x="104" y="0" type="line"/>
      <point x="134" y="0" type="line"/>
      <point x="134" y="688" type="line"/>
    </contour>
    <contour>
      <point x="124" y="145" type="line"/>
      <point x="124" y="117" type="line"/>
      <point x="338" y="117" type="line" smooth="yes"/>
      <point x="485" y="117"/>
      <point x="593" y="193"/>
      <point x="593" y="342" type="curve" smooth="yes"/>
      <point x="593" y="501"/>
      <point x="485" y="572"/>
      <point x="338" y="572" type="curve" smooth="yes"/>
      <point x="124" y="572" type="line"/>
      <point x="124" y="544" type="line"/>
      <point x="338" y="544" type="line" smooth="yes"/>
      <point x="469" y="544"/>
      <point x="563" y="485"/>
      <point x="563" y="342" type="curve" smooth="yes"/>
      <point x="563" y="208"/>
      <point x="468" y="145"/>
      <point x="338" y="145" type="curve" smooth="yes"/>
    </contour>
  </outline>
</glyph>
<glyph name="germandbls" format="1">
  <advance width="653"/>
  <unicode hex="00DF"/>
  <outline>
    <contour>
      <point x="38" y="502" type="line"/>
      <point x="135" y="502" type="line"/>
      <point x="135" y="530" type="line"/>
      <point x="38" y="530" type="line"/>
    </contour>
    <contour>
      <point x="371" y="303" type="curve"/>
      <point x="371" y="252"/>
      <point x="411" y="228"/>
      <point x="456" y="206" type="curve" smooth="yes"/>
      <point x="489" y="190" type="line" smooth="yes"/>
      <point x="540" y="165"/>
      <point x="564" y="143"/>
      <point x="564" y="101" type="curve"/>
      <point x="564" y="35"/>
      <point x="508" y="18"/>
      <point x="455" y="18" type="curve"/>
      <point x="387" y="18"/>
      <point x="308" y="48"/>
      <point x="269" y="75" type="curve"/>
      <point x="269" y="40" type="line"/>
      <point x="308" y="17"/>
      <point x="383" y="-10"/>
      <point x="456" y="-10" type="curve"/>
      <point x="533" y="-10"/>
      <point x="594" y="26"/>
      <point x="594" y="101" type="curve"/>
      <point x="594" y="155"/>
      <point x="555" y="188"/>
      <point x="508" y="212" type="curve" smooth="yes"/>
      <point x="472" y="230" type="line" smooth="yes"/>
      <point x="434" y="249"/>
      <point x="401" y="271"/>
      <point x="401" y="305" type="curve"/>
      <point x="401" y="331"/>
      <point x="417" y="351"/>
      <point x="443" y="380" type="curve" smooth="yes"/>
      <point x="483" y="425" type="line" smooth="yes"/>
      <point x="510" y="455"/>
      <point x="528" y="494"/>
      <point x="528" y="540" type="curve"/>
      <point x="528" y="641"/>
      <point x="449" y="698"/>
      <point x="344" y="698" type="curve"/>
      <point x="220" y="698"/>
      <point x="121" y="629"/>
      <point x="121" y="471" type="curve"/>
      <point x="121" y="0" type="line"/>
      <point x="151" y="0" type="line"/>
      <point x="151" y="473" type="line"/>
      <point x="151" y="592"/>
      <point x="214" y="669"/>
      <point x="344" y="669" type="curve"/>
      <point x="447" y="669"/>
      <point x="498" y="608"/>
      <point x="498" y="540" type="curve"/>
      <point x="498" y="505"/>
      <point x="486" y="473"/>
      <point x="463" y="446" type="curve" smooth="yes"/>
      <point x="419" y="395" type="line" smooth="yes"/>
      <point x="391" y="363"/>
      <point x="371" y="340"/>
    </contour>
  </outline>
</glyph>
<glyph name="eth" format="1">
  <advance width="616"/>
  <unicode hex="00F0"/>
  <outline>
    <contour>
      <point x="291" y="442" type="curve"/>
      <point x="170" y="442"/>
      <point x="59" y="368"/>
      <point x="59" y="226" type="curve"/>
      <point x="59" y="77"/>
      <point x="164" y="-10"/>
      <point x="303" y="-10" type="curve"/>
      <point x="441" y="-10"/>
      <point x="557" y="74"/>
      <point x="557" y="266" type="curve"/>
      <point x="557" y="466"/>
      <point x="374" y="635"/>
      <point x="275" y="688" type="curve"/>
      <point x="228" y="688" type="line"/>
      <point x="311" y="645"/>
      <point x="497" y="500"/>
      <point x="525" y="313" type="curve"/>
      <point x="525" y="303" type="line"/>
      <point x="526" y="291"/>
      <point x="527" y="278"/>
      <point x="527" y="266" type="curve"/>
      <point x="527" y="92"/>
      <point x="426" y="18"/>
      <point x="303" y="18" type="curve"/>
      <point x="178" y="18"/>
      <point x="89" y="95"/>
      <point x="89" y="226" type="curve"/>
      <point x="89" y="349"/>
      <point x="184" y="414"/>
      <point x="291" y="414" type="curve"/>
      <point x="406" y="414"/>
      <point x="481" y="356"/>
      <point x="532" y="286" type="curve"/>
      <point x="537" y="305" type="line"/>
      <point x="500" y="374"/>
      <point x="414" y="442"/>
    </contour>
    <contour>
      <point x="186" y="507" type="line"/>
      <point x="231" y="507" type="line"/>
      <point x="538" y="688" type="line"/>
      <point x="493" y="688" type="line"/>
    </contour>
  </outline>
</glyph>
<glyph name="divide" format="1">
  <advance width="499"/>
  <unicode hex="00F7"/>
  <outline>
    <contour>
      <point x="69" y="330" type="line"/>
      <point x="431" y="330" type="line"/>
      <point x="431" y="358" type="line"/>
      <point x="69" y="358" type="line"/>
    </contour>
    <contour>
      <point x="214" y="154"/>
      <point x="229" y="139"/>
      <point x="246" y="139" type="curve" smooth="yes"/>
      <point x="264" y="139"/>
      <point x="279" y="154"/>
      <point x="279" y="171" type="curve" smooth="yes"/>
      <point x="279" y="189"/>
      <point x="264" y="204"/>
      <point x="246" y="204" type="curve" smooth="yes"/>
      <point x="229" y="204"/>
      <point x="214" y="189"/>
      <point x="214" y="171" type="curve" smooth="yes"/>
    </contour>
    <contour>
      <point x="214" y="499"/>
      <point x="229" y="484"/>
      <point x="246" y="484" type="curve" smooth="yes"/>
      <point x="264" y="484"/>
      <point x="279" y="499"/>
      <point x="279" y="516" type="curve" smooth="yes"/>
      <point x="279" y="534"/>
      <point x="264" y="549"/>
      <point x="246" y="549" type="curve" smooth="yes"/>
      <point x="229" y="549"/>
      <point x="214" y="534"/>
      <point x="214" y="516" type="curve" smooth="yes"/>
    </contour>
  </outline>
</glyph>
<glyph name="oslash" format="1">
  <advance width="667"/>
  <unicode hex="00F8"/>
  <outline>
    <contour>
      <point x="333" y="-10" type="curve" smooth="yes"/>
      <point x="179" y="-10"/>
      <point x="68" y="109"/>
      <point x="68" y="265" type="curve" smooth="yes"/>
      <point x="68" y="421"/>
      <point x="179" y="540"/>
      <point x="333" y="540" type="curve" smooth="yes"/>
      <point x="488" y="540"/>
      <point x="599" y="421"/>
      <point x="599" y="265" type="curve" smooth="yes"/>
      <point x="599" y="109"/>
      <point x="488" y="-10"/>
    </contour>
    <contour>
      <point x="333" y="18" type="curve" smooth="yes"/>
      <point x="473" y="18"/>
      <point x="569" y="126"/>
      <point x="569" y="265" type="curve" smooth="yes"/>
      <point x="569" y="404"/>
      <point x="473" y="512"/>
      <point x="333" y="512" type="curve" smooth="yes"/>
      <point x="195" y="512"/>
      <point x="98" y="404"/>
      <point x="98" y="265" type="curve" smooth="yes"/>
      <point x="98" y="126"/>
      <point x="195" y="18"/>
    </contour>
    <contour>
      <point x="608" y="530" type="line"/>
      <point x="96" y="0" type="line"/>
      <point x="59" y="0" type="line"/>
      <point x="571" y="530" type="line"/>
    </contour>
  </outline>
</glyph>
<glyph name="thorn" format="1">
  <advance width="597"/>
  <unicode hex="00FE"/>
  <outline>
    <contour>
      <point x="119" y="-158" type="line"/>
      <point x="119" y="698" type="line"/>
      <point x="89" y="688" type="line"/>
      <point x="89" y="-158" type="line"/>
    </contour>
    <contour>
      <point x="99" y="27" type="line"/>
      <point x="146" y="9"/>
      <point x="193" y="-10"/>
      <point x="269" y="-10" type="curve"/>
      <point x="427" y="-10"/>
      <point x="538" y="96"/>
      <point x="538" y="280" type="curve" smooth="yes"/>
      <point x="538" y="441"/>
      <point x="447" y="540"/>
      <point x="307" y="540" type="curve"/>
      <point x="212" y="540"/>
      <point x="137" y="487"/>
      <point x="109" y="457" type="curve"/>
      <point x="109" y="426" type="line"/>
      <point x="141" y="459"/>
      <point x="212" y="512"/>
      <point x="307" y="512" type="curve"/>
      <point x="431" y="512"/>
      <point x="508" y="421"/>
      <point x="508" y="280" type="curve" smooth="yes"/>
      <point x="508" y="114"/>
      <point x="414" y="18"/>
      <point x="269" y="18" type="curve"/>
      <point x="197" y="18"/>
      <point x="154" y="36"/>
      <point x="109" y="53" type="curve"/>
    </contour>
  </outline>
</glyph>
<glyph name="dcroat" format="1">
  <advance width="622"/>
  <unicode hex="0111"/>
  <outline>
    <contour>
      <point x="328" y="482" type="curve"/>
      <point x="400" y="482"/>
      <point x="443" y="464"/>
      <point x="488" y="447" type="curve"/>
      <point x="498" y="473" type="line"/>
      <point x="451" y="491"/>
      <point x="404" y="510"/>
      <point x="328" y="510" type="curve"/>
      <point x="170" y="510"/>
      <point x="59" y="411"/>
      <point x="59" y="240" type="curve" smooth="yes"/>
      <point x="59" y="85"/>
      <point x="150" y="-10"/>
      <point x="290" y="-10" type="curve"/>
      <point x="385" y="-10"/>
      <point x="460" y="43"/>
      <point x="488" y="73" type="curve"/>
      <point x="488" y="104" type="line"/>
      <point x="456" y="71"/>
      <point x="385" y="18"/>
      <point x="290" y="18" type="curve"/>
      <point x="166" y="18"/>
      <point x="89" y="105"/>
      <point x="89" y="240" type="curve" smooth="yes"/>
      <point x="89" y="393"/>
      <point x="183" y="482"/>
    </contour>
    <contour>
      <point x="478" y="88" type="line"/>
      <point x="480" y="84" type="line"/>
      <point x="480" y="0" type="line"/>
      <point x="508" y="0" type="line"/>
      <point x="508" y="698" type="line"/>
      <point x="478" y="688" type="line"/>
    </contour>
    <contour>
      <point x="288" y="585" type="line"/>
      <point x="608" y="585" type="line"/>
      <point x="608" y="613" type="line"/>
      <point x="288" y="613" type="line"/>
    </contour>
  </outline>
</glyph>
<glyph name="hcircumflex" format="1">
  <advance width="599"/>
  <unicode hex="0125"/>
  <outline>
    <contour>
      <point x="89" y="688" type="line"/>
      <point x="89" y="0" type="line"/>
      <point x="119" y="0" type="line"/>
      <point x="119" y="698" type="line"/>
    </contour>
    <contour>
      <point x="326" y="512" type="curve" smooth="yes"/>
      <point x="414" y="512"/>
      <point x="485" y="461"/>
      <point x="485" y="340" type="curve" smooth="yes"/>
      <point x="485" y="0" type="line"/>
      <point x="515" y="0" type="line"/>
      <point x="515" y="340" type="line" smooth="yes"/>
      <point x="515" y="483"/>
      <point x="429" y="540"/>
      <point x="326" y="540" type="curve" smooth="yes"/>
      <point x="229" y="540"/>
      <point x="160" y="492"/>
      <point x="112" y="456" type="curve"/>
      <point x="115" y="430" type="line"/>
      <point x="157" y="461"/>
      <point x="239" y="512"/>
    </contour>
    <component base="circumflex.uc" xOffset="-94"/>
  </outline>
</glyph>
<glyph name="hbar" format="1">
  <advance width="624"/>
  <unicode hex="0127"/>
  <outline>
    <contour>
      <point x="114" y="688" type="line"/>
      <point x="114" y="0" type="line"/>
      <point x="144" y="0" type="line"/>
      <point x="144" y="698" type="line"/>
    </contour>
    <contour>
      <point x="351" y="482" type="curve" smooth="yes"/>
      <point x="439" y="482"/>
      <point x="510" y="431"/>
      <point x="510" y="310" type="curve" smooth="yes"/>
      <point x="510" y="0" type="line"/>
      <point x="540" y="0" type="line"/>
      <point x="540" y="310" type="line" smooth="yes"/>
      <point x="540" y="453"/>
      <point x="454" y="510"/>
      <point x="351" y="510" type="curve" smooth="yes"/>
      <point x="254" y="510"/>
      <point x="185" y="462"/>
      <point x="137" y="426" type="curve"/>
      <point x="140" y="400" type="line"/>
      <point x="182" y="431"/>
      <point x="264" y="482"/>
    </contour>
    <contour>
      <point x="14" y="585" type="line"/>
      <point x="334" y="585" type="line"/>
      <point x="334" y="613" type="line"/>
      <point x="14" y="613" type="line"/>
    </contour>
  </outline>
</glyph>
<glyph name="dotlessi" format="1">
  <advance width="208"/>
  <unicode hex="0131"/>
  <outline>
    <contour>
      <point x="119" y="0" type="line"/>
      <point x="119" y="530" type="line"/>
      <point x="89" y="530" type="line"/>
      <point x="89" y="0" type="line"/>
    </contour>
  </outline>
</glyph>
<glyph name="IJ" format="1">
  <advance width="774"/>
  <unicode hex="0132"/>
  <outline>
    <contour>
      <point x="104" y="688" type="line"/>
      <point x="104" y="0" type="line"/>
      <point x="134" y="0" type="line"/>
      <point x="134" y="688" type="line"/>
    </contour>
    <contour>
      <point x="269" y="102" type="line"/>
      <point x="307" y="65"/>
      <point x="388" y="20"/>
      <point x="479" y="20" type="curve" smooth="yes"/>
      <point x="574" y="20"/>
      <point x="650" y="68"/>
      <point x="650" y="191" type="curve"/>
      <point x="650" y="688" type="line"/>
      <point x="680" y="688" type="line"/>
      <point x="680" y="193" type="line"/>
      <point x="680" y="45"/>
      <point x="585" y="-10"/>
      <point x="479" y="-10" type="curve" smooth="yes"/>
      <point x="395" y="-10"/>
      <point x="317" y="26"/>
      <point x="269" y="65" type="curve"/>
    </contour>
  </outline>
</glyph>
<glyph name="Lslash" format="1">
  <advance width="589"/>
  <unicode hex="0141"/>
  <outline>
    <contour>
      <point x="24" y="356" type="line"/>
      <point x="324" y="516" type="line"/>
      <point x="324" y="549" type="line"/>
      <point x="24" y="389" type="line"/>
    </contour>
    <contour>
      <point x="119" y="688" type="line"/>
      <point x="119" y="0" type="line"/>
      <point x="149" y="0" type="line"/>
      <point x="149" y="688" type="line"/>
    </contour>
    <contour>
      <point x="135" y="0" type="line"/>
      <point x="570" y="0" type="line"/>
      <point x="570" y="28" type="line"/>
      <point x="135" y="28" type="line"/>
    </contour>
  </outline>
</glyph>
<glyph name="lslash" format="1">
  <advance width="298"/>
  <unicode hex="0142"/>
  <outline>
    <contour>
      <point x="129" y="688" type="line"/>
      <point x="129" y="0" type="line"/>
      <point x="159" y="0" type="line"/>
      <point x="159" y="698" type="line"/>
    </contour>
    <contour>
      <point x="24" y="356" type="line"/>
      <point x="274" y="516" type="line"/>
      <point x="274" y="549" type="line"/>
      <point x="24" y="389" type="line"/>
    </contour>
  </outline>
</glyph>
<glyph name="Eng" format="1">
  <advance width="735"/>
  <unicode hex="014A"/>
  <outline>
    <contour>
      <point x="631" y="-38" type="curve"/>
      <point x="631" y="688" type="line"/>
      <point x="601" y="688" type="line"/>
      <point x="601" y="54" type="line"/>
      <point x="132" y="688" type="line"/>
      <point x="104" y="688" type="line"/>
      <point x="104" y="0" type="line"/>
      <point x="134" y="0" type="line"/>
      <point x="134" y="634" type="line"/>
      <point x="601" y="3" type="line"/>
      <point x="601" y="-40" type="line"/>
      <point x="601" y="-89"/>
      <point x="578" y="-122"/>
      <point x="534" y="-143" type="curve"/>
      <point x="552" y="-168" type="line"/>
      <point x="595" y="-145"/>
      <point x="631" y="-107"/>
    </contour>
  </outline>
</glyph>
<glyph name="OE" format="1">
  <advance width="1160"/>
  <unicode hex="0152"/>
  <outline>
    <contour>
      <point x="410" y="-10" type="curve" smooth="yes"/>
      <point x="214" y="-10"/>
      <point x="64" y="136"/>
      <point x="64" y="343" type="curve" smooth="yes"/>
      <point x="64" y="552"/>
      <point x="214" y="698"/>
      <point x="410" y="698" type="curve" smooth="yes"/>
      <point x="605" y="698"/>
      <point x="755" y="552"/>
      <point x="755" y="343" type="curve" smooth="yes"/>
      <point x="755" y="136"/>
      <point x="605" y="-10"/>
    </contour>
    <contour>
      <point x="410" y="20" type="curve" smooth="yes"/>
      <point x="589" y="20"/>
      <point x="725" y="154"/>
      <point x="725" y="343" type="curve" smooth="yes"/>
      <point x="725" y="534"/>
      <point x="589" y="668"/>
      <point x="410" y="668" type="curve" smooth="yes"/>
      <point x="230" y="668"/>
      <point x="94" y="534"/>
      <point x="94" y="343" type="curve" smooth="yes"/>
      <point x="94" y="154"/>
      <point x="230" y="20"/>
    </contour>
    <contour>
      <point x="490" y="660" type="line"/>
      <point x="490" y="688" type="line"/>
      <point x="1106" y="688" type="line"/>
      <point x="1106" y="660" type="line"/>
    </contour>
    <contour>
      <point x="490" y="0" type="line"/>
      <point x="490" y="28" type="line"/>
      <point x="1106" y="28" type="line"/>
      <point x="1106" y="0" type="line"/>
    </contour>
    <contour>
      <point x="739" y="336" type="line"/>
      <point x="739" y="364" type="line"/>
      <point x="1056" y="364" type="line"/>
      <point x="1056" y="336" type="line"/>
    </contour>
  </outline>
</glyph>
<glyph name="oe" format="1">
  <advance width="1082"/>
  <unicode hex="0153"/>
  <outline>
    <contour>
      <point x="324" y="-10" type="curve" smooth="yes"/>
      <point x="474" y="-10"/>
      <point x="590" y="109"/>
      <point x="590" y="265" type="curve" smooth="yes"/>
      <point x="590" y="421"/>
      <point x="474" y="540"/>
      <point x="324" y="540" type="curve" smooth="yes"/>
      <point x="175" y="540"/>
      <point x="59" y="421"/>
      <point x="59" y="265" type="curve" smooth="yes"/>
      <point x="59" y="109"/>
      <point x="175" y="-10"/>
    </contour>
    <contour>
      <point x="324" y="18" type="curve" smooth="yes"/>
      <point x="191" y="18"/>
      <point x="89" y="126"/>
      <point x="89" y="265" type="curve" smooth="yes"/>
      <point x="89" y="404"/>
      <point x="191" y="512"/>
      <point x="324" y="512" type="curve" smooth="yes"/>
      <point x="459" y="512"/>
      <point x="560" y="404"/>
      <point x="560" y="265" type="curve" smooth="yes"/>
      <point x="560" y="126"/>
      <point x="459" y="18"/>
    </contour>
    <contour>
      <point x="590" y="270" type="line" smooth="yes"/>
      <point x="590" y="430"/>
      <point x="683" y="512"/>
      <point x="798" y="512" type="curve"/>
      <point x="918" y="512"/>
      <point x="986" y="431"/>
      <point x="990" y="278" type="curve"/>
      <point x="577" y="278" type="line"/>
      <point x="577" y="249" type="line"/>
      <point x="1020" y="249" type="line"/>
      <point x="1020" y="265" type="line"/>
      <point x="1020" y="445"/>
      <point x="939" y="542"/>
      <point x="798" y="542" type="curve"/>
      <point x="662" y="542"/>
      <point x="560" y="445"/>
      <point x="560" y="265" type="curve" smooth="yes"/>
      <point x="560" y="80"/>
      <point x="675" y="-10"/>
      <point x="825" y="-10" type="curve" smooth="yes"/>
      <point x="885" y="-10"/>
      <point x="962" y="1"/>
      <point x="1003" y="27" type="curve"/>
      <point x="1003" y="58" type="line"/>
      <point x="968" y="33"/>
      <point x="888" y="20"/>
      <point x="825" y="20" type="curve" smooth="yes"/>
      <point x="699" y="20"/>
      <point x="590" y="95"/>
      <point x="590" y="259" type="curve" smooth="yes"/>
    </contour>
  </outline>
</glyph>
<glyph name="florin" format="1">
  <advance width="556"/>
  <unicode hex="0192"/>
  <outline>
    <contour>
      <point x="209" y="432" type="line"/>
      <point x="479" y="432" type="line"/>
      <point x="484" y="460" type="line"/>
      <point x="214" y="460" type="line"/>
    </contour>
    <contour>
      <point x="212" y="-23" type="line" smooth="yes"/>
      <point x="198" y="-102"/>
      <point x="156" y="-139"/>
      <point x="86" y="-139" type="curve"/>
      <point x="41" y="-139"/>
      <point x="6" y="-122"/>
      <point x="-16" y="-102" type="curve"/>
      <point x="-21" y="-133" type="line"/>
      <point x="-7" y="-147"/>
      <point x="29" y="-168"/>
      <point x="81" y="-168" type="curve"/>
      <point x="147" y="-168"/>
      <point x="220" y="-145"/>
      <point x="242" y="-21" type="curve" smooth="yes"/>
      <point x="344" y="553" type="line" smooth="yes"/>
      <point x="359" y="635"/>
      <point x="399" y="669"/>
      <point x="469" y="669" type="curve"/>
      <point x="514" y="669"/>
      <point x="549" y="652"/>
      <point x="571" y="632" type="curve"/>
      <point x="577" y="663" type="line"/>
      <point x="562" y="677"/>
      <point x="526" y="698"/>
      <point x="474" y="698" type="curve"/>
      <point x="410" y="698"/>
      <point x="335" y="677"/>
      <point x="313" y="551" type="curve" smooth="yes"/>
    </contour>
  </outline>
</glyph>
<glyph name="circumflex" format="1">
  <advance width="406"/>
  <unicode hex="02C6"/>
  <outline>
    <contour>
      <point x="186" y="756" type="line"/>
      <point x="220" y="756" type="line"/>
      <point x="342" y="600" type="line"/>
      <point x="309" y="600" type="line"/>
      <point x="203" y="728" type="line"/>
      <point x="97" y="600" type="line"/>
      <point x="64" y="600" type="line"/>
    </contour>
  </outline>
</glyph>
<glyph name="breve" format="1">
  <advance width="389"/>
  <unicode hex="02D8"/>
  <outline>
    <contour>
      <point x="194" y="615" type="curve" smooth="yes"/>
      <point x="261" y="615"/>
      <point x="305" y="660"/>
      <point x="305" y="741" type="curve"/>
      <point x="276" y="741" type="line"/>
      <point x="276" y="672"/>
      <point x="239" y="642"/>
      <point x="194" y="642" type="curve" smooth="yes"/>
      <point x="149" y="642"/>
      <point x="113" y="672"/>
      <point x="113" y="741" type="curve"/>
      <point x="84" y="741" type="line"/>
      <point x="84" y="660"/>
      <point x="128" y="615"/>
    </contour>
  </outline>
</glyph>
<glyph name="dotaccent" format="1">
  <advance width="182"/>
  <unicode hex="02D9"/>
  <outline>
    <contour>
      <point x="64" y="663"/>
      <point x="76" y="651"/>
      <point x="91" y="651" type="curve" smooth="yes"/>
      <point x="106" y="651"/>
      <point x="118" y="663"/>
      <point x="118" y="678" type="curve" smooth="yes"/>
      <point x="118" y="692"/>
      <point x="106" y="705"/>
      <point x="91" y="705" type="curve" smooth="yes"/>
      <point x="76" y="705"/>
      <point x="64" y="692"/>
      <point x="64" y="678" type="curve" smooth="yes"/>
    </contour>
  </outline>
</glyph>
<glyph name="ring" format="1">
  <advance width="334"/>
  <unicode hex="02DA"/>
  <outline>
    <contour>
      <point x="167" y="578" type="curve" smooth="yes"/>
      <point x="226" y="578"/>
      <point x="270" y="623"/>
      <point x="270" y="678" type="curve" smooth="yes"/>
      <point x="270" y="733"/>
      <point x="226" y="778"/>
      <point x="167" y="778" type="curve" smooth="yes"/>
      <point x="109" y="778"/>
      <point x="64" y="733"/>
      <point x="64" y="678" type="curve" smooth="yes"/>
      <point x="64" y="623"/>
      <point x="109" y="578"/>
    </contour>
    <contour>
      <point x="168" y="605" type="curve" smooth="yes"/>
      <point x="128" y="605"/>
      <point x="92" y="635"/>
      <point x="92" y="678" type="curve" smooth="yes"/>
      <point x="92" y="721"/>
      <point x="128" y="752"/>
      <point x="168" y="752" type="curve" smooth="yes"/>
      <point x="208" y="752"/>
      <point x="242" y="721"/>
      <point x="242" y="678" type="curve" smooth="yes"/>
      <point x="242" y="635"/>
      <point x="208" y="605"/>
    </contour>
    <contour>
      <point x="157" y="678" type="move" name="center"/>
    </contour>
  </outline>
</glyph>
<glyph name="ogonek" format="1">
  <advance width="284"/>
  <unicode hex="02DB"/>
  <outline>
    <contour>
      <point x="166" y="0" type="line"/>
      <point x="105" y="-31"/>
      <point x="64" y="-63"/>
      <point x="64" y="-102" type="curve" smooth="yes"/>
      <point x="64" y="-145"/>
      <point x="96" y="-168"/>
      <point x="143" y="-168" type="curve" smooth="yes"/>
      <point x="175" y="-168"/>
      <point x="201" y="-157"/>
      <point x="220" y="-143" type="curve"/>
      <point x="220" y="-109" type="line"/>
      <point x="197" y="-130"/>
      <point x="170" y="-138"/>
      <point x="145" y="-138" type="curve" smooth="yes"/>
      <point x="116" y="-138"/>
      <point x="96" y="-121"/>
      <point x="96" y="-98" type="curve"/>
      <point x="96" y="-67"/>
      <point x="136" y="-36"/>
      <point x="194" y="0" type="curve"/>
    </contour>
    <contour>
      <point x="143" y="-84" type="move" name="center"/>
    </contour>
  </outline>
</glyph>
<glyph name="tilde" format="1">
  <advance width="391"/>
  <unicode hex="02DC"/>
  <outline>
    <contour>
      <point x="262" y="634" type="curve" smooth="yes"/>
      <point x="287" y="634"/>
      <point x="309" y="646"/>
      <point x="327" y="672" type="curve"/>
      <point x="327" y="715" type="line"/>
      <point x="314" y="684"/>
      <point x="293" y="664"/>
      <point x="264" y="664" type="curve" smooth="yes"/>
      <point x="214" y="664"/>
      <point x="190" y="722"/>
      <point x="131" y="722" type="curve" smooth="yes"/>
      <point x="105" y="722"/>
      <point x="83" y="709"/>
      <point x="64" y="682" type="curve"/>
      <point x="64" y="641" type="line"/>
      <point x="79" y="672"/>
      <point x="100" y="692"/>
      <point x="127" y="692" type="curve" smooth="yes"/>
      <point x="177" y="692"/>
      <point x="203" y="634"/>
    </contour>
  </outline>
</glyph>
<glyph name="hungarumlaut" format="1">
  <advance width="390"/>
  <unicode hex="02DD"/>
  <outline>
    <contour>
      <point x="162" y="756" type="line"/>
      <point x="64" y="600" type="line"/>
      <point x="64" y="600"/>
      <point x="95" y="600"/>
      <point x="95" y="600" type="curve"/>
      <point x="205" y="756" type="line"/>
    </contour>
    <contour>
      <point x="283" y="756" type="line"/>
      <point x="185" y="600" type="line"/>
      <point x="185" y="600"/>
      <point x="216" y="600"/>
      <point x="216" y="600" type="curve"/>
      <point x="326" y="756" type="line"/>
    </contour>
    <contour>
      <point x="145" y="678" type="move" name="center"/>
    </contour>
  </outline>
</glyph>
<glyph name="commaaccent" format="1">
  <advance width="205"/>
  <unicode hex="0326"/>
  <outline>
    <contour>
      <point x="141" y="-51" type="line"/>
      <point x="102" y="-51" type="line"/>
      <point x="64" y="-178" type="line"/>
      <point x="91" y="-178" type="line"/>
    </contour>
    <contour>
      <point x="112" y="-115" type="move" name="center"/>
    </contour>
  </outline>
</glyph>
<glyph name="emdash" format="1">
  <advance width="748"/>
  <unicode hex="2014"/>
  <outline>
    <contour>
      <point x="29" y="280" type="line"/>
      <point x="29" y="280"/>
      <point x="29" y="250"/>
      <point x="29" y="250" type="curve"/>
      <point x="719" y="250" type="line"/>
      <point x="719" y="280" type="line"/>
    </contour>
  </outline>
</glyph>
<glyph name="quoteright" format="1">
  <advance width="141"/>
  <unicode hex="2019"/>
  <outline>
    <contour>
      <point x="117" y="688" type="line"/>
      <point x="78" y="688" type="line"/>
      <point x="24" y="509" type="line"/>
      <point x="46" y="509" type="line"/>
    </contour>
  </outline>
</glyph>
<glyph name="bullet" format="1">
  <advance width="272"/>
  <unicode hex="2022"/>
  <outline>
    <contour>
      <point x="136" y="242" type="curve" smooth="yes"/>
      <point x="193" y="242"/>
      <point x="238" y="287"/>
      <point x="238" y="344" type="curve" smooth="yes"/>
      <point x="238" y="401"/>
      <point x="193" y="446"/>
      <point x="136" y="446" type="curve" smooth="yes"/>
      <point x="79" y="446"/>
      <point x="34" y="401"/>
      <point x="34" y="344" type="curve" smooth="yes"/>
      <point x="34" y="287"/>
      <point x="79" y="242"/>
    </contour>
  </outline>
</glyph>
<glyph name="ellipsis" format="1">
  <advance width="473"/>
  <unicode hex="2026"/>
  <outline>
    <contour>
      <point x="56" y="-5" type="curve" smooth="yes"/>
      <point x="74" y="-5"/>
      <point x="89" y="10"/>
      <point x="89" y="27" type="curve" smooth="yes"/>
      <point x="89" y="45"/>
      <point x="74" y="60"/>
      <point x="56" y="60" type="curve" smooth="yes"/>
      <point x="39" y="60"/>
      <point x="24" y="45"/>
      <point x="24" y="27" type="curve" smooth="yes"/>
      <point x="24" y="10"/>
      <point x="39" y="-5"/>
    </contour>
    <contour>
      <point x="236" y="-5" type="curve" smooth="yes"/>
      <point x="254" y="-5"/>
      <point x="269" y="10"/>
      <point x="269" y="27" type="curve" smooth="yes"/>
      <point x="269" y="45"/>
      <point x="254" y="60"/>
      <point x="236" y="60" type="curve" smooth="yes"/>
      <point x="219" y="60"/>
      <point x="204" y="45"/>
      <point x="204" y="27" type="curve" smooth="yes"/>
      <point x="204" y="10"/>
      <point x="219" y="-5"/>
    </contour>
    <contour>
      <point x="416" y="-5" type="curve" smooth="yes"/>
      <point x="434" y="-5"/>
      <point x="449" y="10"/>
      <point x="449" y="27" type="curve" smooth="yes"/>
      <point x="449" y="45"/>
      <point x="434" y="60"/>
      <point x="416" y="60" type="curve" smooth="yes"/>
      <point x="399" y="60"/>
      <point x="384" y="45"/>
      <point x="384" y="27" type="curve" smooth="yes"/>
      <point x="384" y="10"/>
      <point x="399" y="-5"/>
    </contour>
  </outline>
</glyph>
<glyph name="guilsinglleft" format="1">
  <advance width="244"/>
  <unicode hex="2039"/>
  <outline>
    <contour>
      <point x="44" y="248" type="line"/>
      <point x="44" y="282" type="line"/>
      <point x="190" y="364" type="line"/>
      <point x="190" y="331" type="line"/>
      <point x="69" y="265" type="line"/>
      <point x="190" y="199" type="line"/>
      <point x="190" y="166" type="line"/>
    </contour>
  </outline>
</glyph>
<glyph name="Euro" format="1">
  <advance width="725"/>
  <unicode hex="20AC"/>
  <outline>
    <contour>
      <point x="9" y="402" type="line"/>
      <point x="9" y="430" type="line"/>
      <point x="469" y="430" type="line"/>
      <point x="469" y="402" type="line"/>
    </contour>
    <contour>
      <point x="9" y="275" type="line"/>
      <point x="9" y="303" type="line"/>
      <point x="469" y="303" type="line"/>
      <point x="469" y="275" type="line"/>
    </contour>
    <contour>
      <point x="440" y="-10" type="curve"/>
      <point x="256" y="-10"/>
      <point x="114" y="116"/>
      <point x="114" y="343" type="curve" smooth="yes"/>
      <point x="114" y="571"/>
      <point x="256" y="698"/>
      <point x="440" y="698" type="curve"/>
      <point x="542" y="698"/>
      <point x="613" y="664"/>
      <point x="665" y="627" type="curve"/>
      <point x="665" y="591" type="line"/>
      <point x="616" y="629"/>
      <point x="544" y="670"/>
      <point x="440" y="670" type="curve"/>
      <point x="275" y="670"/>
      <point x="144" y="554"/>
      <point x="144" y="343" type="curve" smooth="yes"/>
      <point x="144" y="133"/>
      <point x="275" y="18"/>
      <point x="440" y="18" type="curve"/>
      <point x="544" y="18"/>
      <point x="609" y="51"/>
      <point x="665" y="87" type="curve"/>
      <point x="665" y="51" type="line"/>
      <point x="606" y="16"/>
      <point x="542" y="-10"/>
    </contour>
  </outline>
</glyph>
<glyph name="trademark" format="1">
  <advance width="469"/>
  <unicode hex="2122"/>
  <outline>
    <contour>
      <point x="148" y="581" type="line"/>
      <point x="205" y="581" type="line"/>
      <point x="205" y="606" type="line"/>
      <point x="64" y="606" type="line"/>
      <point x="64" y="581" type="line"/>
      <point x="121" y="581" type="line"/>
      <point x="121" y="456" type="line"/>
      <point x="148" y="456" type="line"/>
    </contour>
    <contour>
      <point x="305" y="456" type="line"/>
      <point x="335" y="456" type="line"/>
      <point x="378" y="563" type="line"/>
      <point x="378" y="456" type="line"/>
      <point x="405" y="456" type="line"/>
      <point x="405" y="606" type="line"/>
      <point x="367" y="606" type="line"/>
      <point x="320" y="482" type="line"/>
      <point x="273" y="606" type="line"/>
      <point x="235" y="606" type="line"/>
      <point x="235" y="456" type="line"/>
      <point x="262" y="456" type="line"/>
      <point x="262" y="563" type="line"/>
    </contour>
  </outline>
</glyph>
<glyph name="product" format="1">
  <advance width="578"/>
  <unicode hex="220F"/>
  <outline>
    <contour>
      <point x="422" y="658" type="line"/>
      <point x="422" y="-158" type="line"/>
      <point x="454" y="-158" type="line"/>
      <point x="454" y="658" type="line"/>
      <point x="534" y="658" type="line"/>
      <point x="534" y="688" type="line"/>
      <point x="44" y="688" type="line"/>
      <point x="44" y="658" type="line"/>
      <point x="124" y="658" type="line"/>
      <point x="124" y="-158" type="line"/>
      <point x="156" y="-158" type="line"/>
      <point x="156" y="658" type="line"/>
    </contour>
  </outline>
</glyph>
<glyph name="summation" format="1">
  <advance width="489"/>
  <unicode hex="2211"/>
  <outline>
    <contour>
      <point x="313" y="293" type="line"/>
      <point x="65" y="658" type="line"/>
      <point x="465" y="658" type="line"/>
      <point x="465" y="688" type="line"/>
      <point x="24" y="688" type="line"/>
      <point x="24" y="658" type="line"/>
      <point x="282" y="278" type="line"/>
      <point x="24" y="-128" type="line"/>
      <point x="24" y="-158" type="line"/>
      <point x="465" y="-158" type="line"/>
      <point x="465" y="-128" type="line"/>
      <point x="62" y="-128" type="line"/>
      <point x="313" y="263" type="line"/>
    </contour>
  </outline>
</glyph>
<glyph name="minus" format="1">
  <advance width="499"/>
  <unicode hex="2212"/>
  <outline>
    <contour>
      <point x="69" y="330" type="line"/>
      <point x="431" y="330" type="line"/>
      <point x="431" y="358" type="line"/>
      <point x="69" y="358" type="line"/>
    </contour>
  </outline>
</glyph>
<glyph name="infinity" format="1">
  <advance width="529"/>
  <unicode hex="221E"/>
  <outline>
    <contour>
      <point x="271" y="281" type="curve"/>
      <point x="264" y="313" type="line"/>
      <point x="234" y="247"/>
      <point x="194" y="231"/>
      <point x="165" y="231" type="curve" smooth="yes"/>
      <point x="116" y="231"/>
      <point x="86" y="267"/>
      <point x="86" y="320" type="curve" smooth="yes"/>
      <point x="86" y="375"/>
      <point x="116" y="411"/>
      <point x="156" y="411" type="curve" smooth="yes"/>
      <point x="278" y="411"/>
      <point x="217" y="201"/>
      <point x="368" y="201" type="curve" smooth="yes"/>
      <point x="433" y="201"/>
      <point x="475" y="253"/>
      <point x="475" y="322" type="curve" smooth="yes"/>
      <point x="475" y="390"/>
      <point x="433" y="441"/>
      <point x="365" y="441" type="curve" smooth="yes"/>
      <point x="323" y="441"/>
      <point x="278" y="421"/>
      <point x="254" y="365" type="curve"/>
      <point x="265" y="343" type="line"/>
      <point x="294" y="401"/>
      <point x="329" y="411"/>
      <point x="365" y="411" type="curve" smooth="yes"/>
      <point x="407" y="411"/>
      <point x="443" y="372"/>
      <point x="443" y="320" type="curve" smooth="yes"/>
      <point x="443" y="271"/>
      <point x="407" y="231"/>
      <point x="368" y="231" type="curve" smooth="yes"/>
      <point x="246" y="231"/>
      <point x="307" y="441"/>
      <point x="156" y="441" type="curve" smooth="yes"/>
      <point x="96" y="441"/>
      <point x="54" y="391"/>
      <point x="54" y="320" type="curve" smooth="yes"/>
      <point x="54" y="253"/>
      <point x="96" y="201"/>
      <point x="164" y="201" type="curve" smooth="yes"/>
      <point x="205" y="201"/>
      <point x="248" y="224"/>
    </contour>
  </outline>
</glyph>
<glyph name="approxequal" format="1">
  <advance width="499"/>
  <unicode hex="2248"/>
  <outline>
    <contour>
      <point x="69" y="244" type="line"/>
      <point x="93" y="264"/>
      <point x="122" y="284"/>
      <point x="169" y="284" type="curve" smooth="yes"/>
      <point x="231" y="284"/>
      <point x="262" y="232"/>
      <point x="333" y="232" type="curve" smooth="yes"/>
      <point x="372" y="232"/>
      <point x="404" y="245"/>
      <point x="431" y="262" type="curve"/>
      <point x="431" y="297" type="line"/>
      <point x="402" y="278"/>
      <point x="367" y="264"/>
      <point x="331" y="264" type="curve" smooth="yes"/>
      <point x="268" y="264"/>
      <point x="240" y="316"/>
      <point x="168" y="316" type="curve" smooth="yes"/>
      <point x="128" y="316"/>
      <point x="94" y="296"/>
      <point x="69" y="279" type="curve"/>
    </contour>
    <contour>
      <point x="69" y="384" type="line"/>
      <point x="93" y="404"/>
      <point x="122" y="424"/>
      <point x="169" y="424" type="curve" smooth="yes"/>
      <point x="231" y="424"/>
      <point x="262" y="372"/>
      <point x="333" y="372" type="curve" smooth="yes"/>
      <point x="372" y="372"/>
      <point x="404" y="385"/>
      <point x="431" y="402" type="curve"/>
      <point x="431" y="437" type="line"/>
      <point x="402" y="418"/>
      <point x="367" y="404"/>
      <point x="331" y="404" type="curve" smooth="yes"/>
      <point x="268" y="404"/>
      <point x="240" y="456"/>
      <point x="168" y="456" type="curve" smooth="yes"/>
      <point x="128" y="456"/>
      <point x="94" y="436"/>
      <point x="69" y="419" type="curve"/>
    </contour>
  </outline>
</glyph>
<glyph name="greaterequal" format="1">
  <advance width="499"/>
  <unicode hex="2265"/>
  <outline>
    <contour>
      <point x="431" y="158" type="line"/>
      <point x="431" y="188" type="line"/>
      <point x="69" y="188" type="line"/>
      <point x="69" y="158" type="line"/>
    </contour>
    <contour>
      <point x="69" y="204" type="line"/>
      <point x="69" y="171" type="line"/>
      <point x="431" y="339" type="line"/>
      <point x="431" y="365" type="line"/>
      <point x="69" y="532" type="line"/>
      <point x="69" y="499" type="line"/>
      <point x="421" y="341" type="line"/>
      <point x="419" y="363" type="line"/>
    </contour>
  </outline>
</glyph>
<glyph name="lozenge" format="1">
  <advance width="495"/>
  <unicode hex="25CA"/>
  <outline>
    <contour>
      <point x="439" y="344" type="line"/>
      <point x="248" y="28" type="line"/>
      <point x="56" y="344" type="line"/>
      <point x="248" y="660" type="line"/>
    </contour>
    <contour>
      <point x="471" y="344" type="line"/>
      <point x="266" y="688" type="line"/>
      <point x="229" y="688" type="line"/>
      <point x="24" y="344" type="line"/>
      <point x="229" y="0" type="line"/>
      <point x="266" y="0" type="line"/>
    </contour>
  </outline>
</glyph>
<glyph name="Delta.math" format="1">
  <advance width="655"/>
  <outline>
    <contour>
      <point x="586" y="2" type="line"/>
      <point x="601" y="28" type="line"/>
      <point x="50" y="28" type="line"/>
      <point x="66" y="2" type="line"/>
      <point x="336" y="682" type="line"/>
      <point x="317" y="682" type="line"/>
    </contour>
    <contour>
      <point x="34" y="0" type="line" name="*18E630F6F"/>
      <point x="621" y="0" type="line" name="*1923F06BF"/>
      <point x="346" y="689" type="line" name="*1923F0727"/>
      <point x="309" y="689" type="line" name="*18E631247"/>
    </contour>
  </outline>
</glyph>
<glyph name="ITF" format="1">
  <advance width="1629"/>
  <outline>
    <contour>
      <point x="119" y="0" type="line"/>
      <point x="317" y="0" type="line"/>
      <point x="317" y="641" type="line"/>
      <point x="119" y="641" type="line"/>
    </contour>
    <contour>
      <point x="358" y="454" type="line"/>
      <point x="556" y="454" type="line"/>
      <point x="556" y="641" type="line"/>
      <point x="358" y="641" type="line"/>
    </contour>
    <contour>
      <point x="596" y="0" type="line"/>
      <point x="794" y="0" type="line"/>
      <point x="794" y="641" type="line"/>
      <point x="596" y="641" type="line"/>
    </contour>
    <contour>
      <point x="836" y="454" type="line"/>
      <point x="1033" y="454" type="line"/>
      <point x="1033" y="641" type="line"/>
      <point x="836" y="641" type="line"/>
    </contour>
    <contour>
      <point x="1074" y="0" type="line"/>
      <point x="1271" y="0" type="line"/>
      <point x="1271" y="641" type="line"/>
      <point x="1074" y="641" type="line"/>
    </contour>
    <contour>
      <point x="1313" y="454" type="line"/>
      <point x="1510" y="454" type="line"/>
      <point x="1510" y="641" type="line"/>
      <point x="1313" y="641" type="line"/>
    </contour>
    <contour>
      <point x="1313" y="227" type="line"/>
      <point x="1510" y="227" type="line"/>
      <point x="1510" y="413" type="line"/>
      <point x="1313" y="413" type="line"/>
    </contour>
  </outline>
</glyph>
<glyph name="Omega.math" format="1">
  <advance width="736"/>
  <outline>
    <contour>
      <point x="368" y="671" type="curve" smooth="yes"/>
      <point x="533" y="671"/>
      <point x="655" y="543"/>
      <point x="655" y="358" type="curve" smooth="yes"/>
      <point x="655" y="188"/>
      <point x="550" y="80"/>
      <point x="430" y="24" type="curve"/>
      <point x="430" y="0" type="line"/>
      <point x="680" y="0" type="line"/>
      <point x="680" y="28" type="line"/>
      <point x="480" y="28" type="line"/>
      <point x="475" y="14" type="line"/>
      <point x="598" y="79"/>
      <point x="687" y="196"/>
      <point x="687" y="356" type="curve" smooth="yes"/>
      <point x="687" y="544"/>
      <point x="554" y="699"/>
      <point x="368" y="699" type="curve" smooth="yes"/>
      <point x="182" y="699"/>
      <point x="49" y="544"/>
      <point x="49" y="356" type="curve" smooth="yes"/>
      <point x="49" y="196"/>
      <point x="138" y="79"/>
      <point x="261" y="14" type="curve"/>
      <point x="256" y="28" type="line"/>
      <point x="56" y="28" type="line"/>
      <point x="56" y="0" type="line"/>
      <point x="306" y="0" type="line"/>
      <point x="306" y="24" type="line"/>
      <point x="186" y="80"/>
      <point x="81" y="188"/>
      <point x="81" y="358" type="curve" smooth="yes"/>
      <point x="81" y="543"/>
      <point x="203" y="671"/>
    </contour>
  </outline>
</glyph>
<glyph name=".notdef.copy_1" format="1">
  <advance width="646"/>
  <outline>
    <contour>
      <point x="527" y="0" type="line"/>
      <point x="527" y="641" type="line"/>
      <point x="119" y="641" type="line"/>
      <point x="119" y="0" type="line"/>
    </contour>
    <contour>
      <point x="151" y="609" type="line"/>
      <point x="495" y="609" type="line"/>
      <point x="495" y="32" type="line"/>
      <point x="151" y="32" type="line"/>
    </contour>
  </outline>
</glyph>
<glyph name="acute.uc" format="1">
  <advance width="269"/>
  <outline>
    <contour>
      <point x="162" y="874" type="line"/>
      <point x="64" y="748" type="line"/>
      <point x="64" y="748"/>
      <point x="95" y="748"/>
      <point x="95" y="748" type="curve"/>
      <point x="205" y="874" type="line"/>
    </contour>
    <contour>
      <point x="84" y="811" type="move" name="center"/>
    </contour>
  </outline>
</glyph>
<glyph name="breve.uc" format="1">
  <advance width="389"/>
  <outline>
    <contour>
      <point x="194" y="748" type="curve" smooth="yes"/>
      <point x="261" y="748"/>
      <point x="305" y="793"/>
      <point x="305" y="874" type="curve"/>
      <point x="276" y="874" type="line"/>
      <point x="276" y="805"/>
      <point x="239" y="775"/>
      <point x="194" y="775" type="curve" smooth="yes"/>
      <point x="149" y="775"/>
      <point x="113" y="805"/>
      <point x="113" y="874" type="curve"/>
      <point x="84" y="874" type="line"/>
      <point x="84" y="793"/>
      <point x="128" y="748"/>
    </contour>
  </outline>
</glyph>
<glyph name="circumflex.uc" format="1">
  <advance width="406"/>
  <outline>
    <contour>
      <point x="186" y="874" type="line"/>
      <point x="220" y="874" type="line"/>
      <point x="342" y="748" type="line"/>
      <point x="309" y="748" type="line"/>
      <point x="203" y="846" type="line"/>
      <point x="97" y="748" type="line"/>
      <point x="64" y="748" type="line"/>
    </contour>
  </outline>
</glyph>
<glyph name="commaaccent.uc" format="1">
  <advance width="205"/>
  <outline>
    <contour>
      <point x="141" y="-51" type="line"/>
      <point x="102" y="-51" type="line"/>
      <point x="64" y="-178" type="line"/>
      <point x="91" y="-178" type="line"/>
    </contour>
  </outline>
</glyph>
<glyph name="dotlessj" format="1">
  <advance width="207"/>
  <outline>
    <contour>
      <point x="39" y="-168" type="line"/>
      <point x="82" y="-145"/>
      <point x="118" y="-107"/>
      <point x="118" y="-38" type="curve"/>
      <point x="118" y="530" type="line"/>
      <point x="88" y="530" type="line"/>
      <point x="88" y="-40" type="line"/>
      <point x="88" y="-89"/>
      <point x="65" y="-122"/>
      <point x="21" y="-143" type="curve"/>
    </contour>
  </outline>
</glyph>
<glyph name="f_f_j" format="1">
  <advance width="790"/>
  <outline>
    <contour>
      <point x="337" y="680" type="line"/>
      <point x="317" y="690"/>
      <point x="289" y="698"/>
      <point x="256" y="698" type="curve"/>
      <point x="192" y="698"/>
      <point x="121" y="659"/>
      <point x="121" y="551" type="curve"/>
      <point x="121" y="0" type="line"/>
      <point x="151" y="0" type="line"/>
      <point x="151" y="553" type="line"/>
      <point x="151" y="622"/>
      <point x="186" y="669"/>
      <point x="256" y="669" type="curve"/>
      <point x="287" y="669"/>
      <point x="315" y="661"/>
      <point x="337" y="649" type="curve"/>
    </contour>
    <contour>
      <point x="38" y="502" type="line"/>
      <point x="668" y="502" type="line"/>
      <point x="668" y="530" type="line"/>
      <point x="38" y="530" type="line"/>
    </contour>
    <contour>
      <point x="612" y="-168" type="line"/>
      <point x="655" y="-145"/>
      <point x="691" y="-107"/>
      <point x="691" y="-38" type="curve"/>
      <point x="691" y="530" type="line"/>
      <point x="661" y="530" type="line"/>
      <point x="661" y="-40" type="line"/>
      <point x="661" y="-89"/>
      <point x="638" y="-122"/>
      <point x="594" y="-143" type="curve"/>
    </contour>
    <contour>
      <point x="671" y="628" type="curve" smooth="yes"/>
      <point x="688" y="628"/>
      <point x="702" y="642"/>
      <point x="702" y="659" type="curve" smooth="yes"/>
      <point x="702" y="676"/>
      <point x="688" y="690"/>
      <point x="671" y="690" type="curve" smooth="yes"/>
      <point x="654" y="690"/>
      <point x="640" y="676"/>
      <point x="640" y="659" type="curve" smooth="yes"/>
      <point x="640" y="642"/>
      <point x="654" y="628"/>
    </contour>
    <contour>
      <point x="578" y="691" type="line"/>
      <point x="563" y="695"/>
      <point x="545" y="698"/>
      <point x="526" y="698" type="curve"/>
      <point x="462" y="698"/>
      <point x="391" y="669"/>
      <point x="391" y="561" type="curve"/>
      <point x="391" y="0" type="line"/>
      <point x="421" y="0" type="line"/>
      <point x="421" y="563" type="line"/>
      <point x="421" y="632"/>
      <point x="456" y="669"/>
      <point x="526" y="669" type="curve"/>
      <point x="545" y="669"/>
      <point x="562" y="666"/>
      <point x="578" y="661" type="curve"/>
    </contour>
  </outline>
</glyph>
<glyph name="f_f_k" format="1">
  <advance width="1068"/>
  <outline>
    <contour>
      <point x="661" y="668" type="line"/>
      <point x="661" y="0" type="line"/>
      <point x="691" y="0" type="line"/>
      <point x="691" y="698" type="line"/>
    </contour>
    <contour>
      <point x="756" y="302" type="line"/>
      <point x="1004" y="0" type="line"/>
      <point x="1042" y="0" type="line"/>
      <point x="793" y="300" type="line"/>
      <point x="1044" y="530" type="line"/>
      <point x="1003" y="530" type="line"/>
    </contour>
    <contour>
      <point x="337" y="680" type="line"/>
      <point x="317" y="690"/>
      <point x="289" y="698"/>
      <point x="256" y="698" type="curve"/>
      <point x="192" y="698"/>
      <point x="121" y="659"/>
      <point x="121" y="551" type="curve"/>
      <point x="121" y="0" type="line"/>
      <point x="151" y="0" type="line"/>
      <point x="151" y="553" type="line"/>
      <point x="151" y="622"/>
      <point x="186" y="669"/>
      <point x="256" y="669" type="curve"/>
      <point x="287" y="669"/>
      <point x="315" y="661"/>
      <point x="337" y="649" type="curve"/>
    </contour>
    <contour>
      <point x="667" y="667" type="line"/>
      <point x="650" y="677"/>
      <point x="595" y="695"/>
      <point x="538" y="695" type="curve" smooth="yes"/>
      <point x="466" y="695"/>
      <point x="391" y="665"/>
      <point x="391" y="551" type="curve"/>
      <point x="391" y="0" type="line"/>
      <point x="421" y="0" type="line"/>
      <point x="421" y="561" type="line"/>
      <point x="421" y="641"/>
      <point x="472" y="667"/>
      <point x="538" y="667" type="curve" smooth="yes"/>
      <point x="584" y="667"/>
      <point x="634" y="653"/>
      <point x="667" y="637" type="curve"/>
    </contour>
    <contour>
      <point x="38" y="502" type="line"/>
      <point x="558" y="502" type="line"/>
      <point x="558" y="530" type="line"/>
      <point x="38" y="530" type="line"/>
    </contour>
  </outline>
</glyph>
<glyph name="f_h" format="1">
  <advance width="901"/>
  <outline>
    <contour>
      <point x="397" y="667" type="curve"/>
      <point x="397" y="637" type="line"/>
      <point x="364" y="653"/>
      <point x="314" y="667"/>
      <point x="268" y="667" type="curve" smooth="yes"/>
      <point x="202" y="667"/>
      <point x="151" y="641"/>
      <point x="151" y="561" type="curve"/>
      <point x="151" y="0" type="line"/>
      <point x="121" y="0" type="line"/>
      <point x="121" y="551" type="line"/>
      <point x="121" y="665"/>
      <point x="196" y="695"/>
      <point x="268" y="695" type="curve" smooth="yes"/>
      <point x="325" y="695"/>
      <point x="380" y="677"/>
    </contour>
    <contour>
      <point x="38" y="502" type="line"/>
      <point x="38" y="530" type="line"/>
      <point x="288" y="530" type="line"/>
      <point x="288" y="502" type="line"/>
    </contour>
    <contour>
      <point x="391" y="668" type="line"/>
      <point x="421" y="698" type="line"/>
      <point x="421" y="0" type="line"/>
      <point x="391" y="0" type="line"/>
    </contour>
    <contour>
      <point x="414" y="456" type="line"/>
      <point x="462" y="492"/>
      <point x="531" y="540"/>
      <point x="628" y="540" type="curve" smooth="yes"/>
      <point x="731" y="540"/>
      <point x="817" y="483"/>
      <point x="817" y="340" type="curve" smooth="yes"/>
      <point x="817" y="0" type="line"/>
      <point x="787" y="0" type="line"/>
      <point x="787" y="340" type="line" smooth="yes"/>
      <point x="787" y="461"/>
      <point x="716" y="512"/>
      <point x="628" y="512" type="curve" smooth="yes"/>
      <point x="541" y="512"/>
      <point x="459" y="461"/>
      <point x="417" y="430" type="curve"/>
    </contour>
  </outline>
</glyph>
<glyph name="f_j" format="1">
  <advance width="508"/>
  <outline>
    <contour>
      <point x="38" y="502" type="line"/>
      <point x="398" y="502" type="line"/>
      <point x="398" y="530" type="line"/>
      <point x="38" y="530" type="line"/>
    </contour>
    <contour>
      <point x="401" y="628" type="curve" smooth="yes"/>
      <point x="418" y="628"/>
      <point x="432" y="642"/>
      <point x="432" y="659" type="curve" smooth="yes"/>
      <point x="432" y="676"/>
      <point x="418" y="690"/>
      <point x="401" y="690" type="curve" smooth="yes"/>
      <point x="384" y="690"/>
      <point x="370" y="676"/>
      <point x="370" y="659" type="curve" smooth="yes"/>
      <point x="370" y="642"/>
      <point x="384" y="628"/>
    </contour>
    <contour>
      <point x="308" y="691" type="line"/>
      <point x="293" y="695"/>
      <point x="275" y="698"/>
      <point x="256" y="698" type="curve"/>
      <point x="192" y="698"/>
      <point x="121" y="669"/>
      <point x="121" y="561" type="curve"/>
      <point x="121" y="0" type="line"/>
      <point x="151" y="0" type="line"/>
      <point x="151" y="563" type="line"/>
      <point x="151" y="632"/>
      <point x="186" y="669"/>
      <point x="256" y="669" type="curve"/>
      <point x="275" y="669"/>
      <point x="292" y="666"/>
      <point x="308" y="661" type="curve"/>
    </contour>
    <contour>
      <point x="342" y="-168" type="line"/>
      <point x="385" y="-145"/>
      <point x="421" y="-107"/>
      <point x="421" y="-38" type="curve"/>
      <point x="421" y="530" type="line"/>
      <point x="391" y="530" type="line"/>
      <point x="391" y="-40" type="line"/>
      <point x="391" y="-89"/>
      <point x="368" y="-122"/>
      <point x="324" y="-143" type="curve"/>
    </contour>
  </outline>
</glyph>
<glyph name="f_k" format="1">
  <advance width="798"/>
  <outline>
    <contour>
      <point x="397" y="667" type="curve"/>
      <point x="397" y="637" type="line"/>
      <point x="364" y="653"/>
      <point x="314" y="667"/>
      <point x="268" y="667" type="curve" smooth="yes"/>
      <point x="202" y="667"/>
      <point x="151" y="641"/>
      <point x="151" y="561" type="curve"/>
      <point x="151" y="0" type="line"/>
      <point x="121" y="0" type="line"/>
      <point x="121" y="551" type="line"/>
      <point x="121" y="665"/>
      <point x="196" y="695"/>
      <point x="268" y="695" type="curve" smooth="yes"/>
      <point x="325" y="695"/>
      <point x="380" y="677"/>
    </contour>
    <contour>
      <point x="38" y="502" type="line"/>
      <point x="38" y="530" type="line"/>
      <point x="288" y="530" type="line"/>
      <point x="288" y="502" type="line"/>
    </contour>
    <contour>
      <point x="391" y="668" type="line"/>
      <point x="421" y="698" type="line"/>
      <point x="421" y="0" type="line"/>
      <point x="391" y="0" type="line"/>
    </contour>
    <contour>
      <point x="486" y="302" type="line"/>
      <point x="733" y="530" type="line"/>
      <point x="774" y="530" type="line"/>
      <point x="523" y="300" type="line"/>
      <point x="772" y="0" type="line"/>
      <point x="734" y="0" type="line"/>
    </contour>
  </outline>
</glyph>
<glyph name="f_t" format="1">
  <advance width="674"/>
  <outline>
    <contour>
      <point x="38" y="502" type="line"/>
      <point x="369" y="502" type="line"/>
      <point x="369" y="530" type="line"/>
      <point x="38" y="530" type="line"/>
    </contour>
    <contour>
      <point x="635" y="24" type="curve"/>
      <point x="635" y="56" type="line"/>
      <point x="609" y="36"/>
      <point x="572" y="19"/>
      <point x="527" y="19" type="curve"/>
      <point x="459" y="19"/>
      <point x="421" y="53"/>
      <point x="421" y="128" type="curve"/>
      <point x="421" y="502" type="line"/>
      <point x="628" y="502" type="line"/>
      <point x="628" y="530" type="line"/>
      <point x="421" y="530" type="line"/>
      <point x="421" y="630" type="line"/>
      <point x="391" y="620" type="line"/>
      <point x="391" y="530" type="line"/>
      <point x="308" y="530" type="line"/>
      <point x="308" y="502" type="line"/>
      <point x="391" y="502" type="line"/>
      <point x="391" y="130" type="line"/>
      <point x="391" y="16"/>
      <point x="462" y="-10"/>
      <point x="526" y="-10" type="curve"/>
      <point x="578" y="-10"/>
      <point x="615" y="8"/>
    </contour>
    <contour>
      <point x="337" y="680" type="line"/>
      <point x="317" y="690"/>
      <point x="289" y="698"/>
      <point x="256" y="698" type="curve"/>
      <point x="192" y="698"/>
      <point x="121" y="659"/>
      <point x="121" y="551" type="curve"/>
      <point x="121" y="0" type="line"/>
      <point x="151" y="0" type="line"/>
      <point x="151" y="553" type="line"/>
      <point x="151" y="622"/>
      <point x="186" y="669"/>
      <point x="256" y="669" type="curve"/>
      <point x="287" y="669"/>
      <point x="315" y="661"/>
      <point x="337" y="649" type="curve"/>
    </contour>
  </outline>
</glyph>
<glyph name="grave.uc" format="1">
  <advance width="269"/>
  <outline>
    <contour>
      <point x="107" y="874" type="line"/>
      <point x="64" y="874" type="line"/>
      <point x="174" y="748" type="line"/>
      <point x="174" y="748"/>
      <point x="205" y="748"/>
      <point x="205" y="748" type="curve"/>
    </contour>
    <contour>
      <point x="184" y="811" type="move" name="center"/>
    </contour>
  </outline>
</glyph>
<glyph name="hungarumlaut.uc" format="1">
  <advance width="390"/>
  <outline>
    <contour>
      <point x="162" y="874" type="line"/>
      <point x="64" y="748" type="line"/>
      <point x="64" y="748"/>
      <point x="95" y="748"/>
      <point x="95" y="748" type="curve"/>
      <point x="205" y="874" type="line"/>
    </contour>
    <contour>
      <point x="283" y="874" type="line"/>
      <point x="185" y="748" type="line"/>
      <point x="185" y="748"/>
      <point x="216" y="748"/>
      <point x="216" y="748" type="curve"/>
      <point x="326" y="874" type="line"/>
    </contour>
    <contour>
      <point x="155" y="811" type="move" name="center"/>
    </contour>
  </outline>
</glyph>
<glyph name="mu.math" format="1">
  <advance width="604"/>
  <outline>
    <contour>
      <point x="278" y="-10" type="curve" smooth="yes"/>
      <point x="372" y="-10"/>
      <point x="439" y="35"/>
      <point x="487" y="70" type="curve"/>
      <point x="487" y="0" type="line"/>
      <point x="515" y="0" type="line"/>
      <point x="515" y="530" type="line"/>
      <point x="485" y="530" type="line"/>
      <point x="485" y="97" type="line"/>
      <point x="442" y="66"/>
      <point x="362" y="18"/>
      <point x="278" y="18" type="curve" smooth="yes"/>
      <point x="190" y="18"/>
      <point x="119" y="69"/>
      <point x="119" y="190" type="curve" smooth="yes"/>
      <point x="119" y="530" type="line"/>
      <point x="89" y="530" type="line"/>
      <point x="89" y="-158" type="line"/>
      <point x="121" y="-158" type="line"/>
      <point x="110" y="84" type="line"/>
      <point x="142" y="18"/>
      <point x="206" y="-10"/>
    </contour>
  </outline>
</glyph>
<glyph name="ogonek.uc" format="1">
  <advance width="284"/>
  <outline>
    <contour>
      <point x="155" y="0" type="line"/>
      <point x="94" y="-36"/>
      <point x="64" y="-68"/>
      <point x="64" y="-100" type="curve" smooth="yes"/>
      <point x="64" y="-142"/>
      <point x="96" y="-168"/>
      <point x="143" y="-168" type="curve" smooth="yes"/>
      <point x="175" y="-168"/>
      <point x="201" y="-157"/>
      <point x="220" y="-143" type="curve"/>
      <point x="220" y="-109" type="line"/>
      <point x="197" y="-130"/>
      <point x="170" y="-138"/>
      <point x="145" y="-138" type="curve" smooth="yes"/>
      <point x="116" y="-138"/>
      <point x="96" y="-122"/>
      <point x="96" y="-98" type="curve" smooth="yes"/>
      <point x="96" y="-72"/>
      <point x="125" y="-36"/>
      <point x="194" y="0" type="curve"/>
    </contour>
  </outline>
</glyph>
<glyph name="ring.uc" format="1">
  <advance width="334"/>
  <outline>
    <contour>
      <point x="167" y="711" type="curve" smooth="yes"/>
      <point x="226" y="711"/>
      <point x="270" y="756"/>
      <point x="270" y="811" type="curve" smooth="yes"/>
      <point x="270" y="866"/>
      <point x="226" y="911"/>
      <point x="167" y="911" type="curve" smooth="yes"/>
      <point x="109" y="911"/>
      <point x="64" y="866"/>
      <point x="64" y="811" type="curve" smooth="yes"/>
      <point x="64" y="756"/>
      <point x="109" y="711"/>
    </contour>
    <contour>
      <point x="168" y="738" type="curve" smooth="yes"/>
      <point x="128" y="738"/>
      <point x="92" y="768"/>
      <point x="92" y="811" type="curve" smooth="yes"/>
      <point x="92" y="854"/>
      <point x="128" y="885"/>
      <point x="168" y="885" type="curve" smooth="yes"/>
      <point x="208" y="885"/>
      <point x="242" y="854"/>
      <point x="242" y="811" type="curve" smooth="yes"/>
      <point x="242" y="768"/>
      <point x="208" y="738"/>
    </contour>
  </outline>
</glyph>
<glyph name="tilde.uc" format="1">
  <advance width="391"/>
  <outline>
    <contour>
      <point x="262" y="767" type="curve" smooth="yes"/>
      <point x="287" y="767"/>
      <point x="309" y="779"/>
      <point x="327" y="805" type="curve"/>
      <point x="327" y="848" type="line"/>
      <point x="314" y="817"/>
      <point x="293" y="797"/>
      <point x="264" y="797" type="curve" smooth="yes"/>
      <point x="214" y="797"/>
      <point x="190" y="855"/>
      <point x="131" y="855" type="curve" smooth="yes"/>
      <point x="105" y="855"/>
      <point x="83" y="842"/>
      <point x="64" y="815" type="curve"/>
      <point x="64" y="774" type="line"/>
      <point x="79" y="805"/>
      <point x="100" y="825"/>
      <point x="127" y="825" type="curve" smooth="yes"/>
      <point x="177" y="825"/>
      <point x="203" y="767"/>
    </contour>
  </outline>
</glyph>
<glyph name="zero.superior" format="1">
  <advance width="309"/>
  <outline>
    <contour>
      <point x="154" y="316" type="curve" smooth="yes" name="*168AE9A42"/>
      <point x="227" y="316" name="*168AE9AAA"/>
      <point x="280" y="375" name="*168AE9B12"/>
      <point x="280" y="481" type="curve" smooth="yes" name="*168AE9B7A"/>
      <point x="280" y="586" name="*168AE9BE2"/>
      <point x="227" y="647" name="*168AE9C4A"/>
      <point x="154" y="647" type="curve" smooth="yes" name="*168AE9CB2"/>
      <point x="81" y="647" name="*168AE9D1A"/>
      <point x="28" y="586" name="*168AE9D82"/>
      <point x="28" y="481" type="curve" smooth="yes" name="*168AE9DEA"/>
      <point x="28" y="375" name="*168AE9972"/>
      <point x="81" y="316" name="*168AE99DA"/>
    </contour>
    <contour>
      <point x="154" y="342" type="curve" smooth="yes" name="*168AEA192"/>
      <point x="98" y="342" name="*168AEA1FA"/>
      <point x="59" y="390" name="*168AEA262"/>
      <point x="59" y="481" type="curve" smooth="yes" name="*168AEA2CA"/>
      <point x="59" y="572" name="*168AE9E52"/>
      <point x="98" y="619" name="*168AE9EBA"/>
      <point x="154" y="619" type="curve" smooth="yes" name="*168AE9F22"/>
      <point x="210" y="619" name="*168AE9F8A"/>
      <point x="250" y="572" name="*168AE9FF2"/>
      <point x="250" y="481" type="curve" smooth="yes" name="*168AEA05A"/>
      <point x="250" y="390" name="*168AEA0C2"/>
      <point x="210" y="342" name="*168AEA12A"/>
    </contour>
  </outline>
</glyph>
